<?xml version="1.0" encoding="UTF-8"?>
<svg version="1.1" xmlns="http://www.w3.org/2000/svg" width="336" height="299">
<path d="M0 0 C110.88 0 221.76 0 336 0 C336 98.67 336 197.34 336 299 C225.12 299 114.24 299 0 299 C0 200.33 0 101.66 0 0 Z " fill="#F7F9F8" transform="translate(0,0)"/>
<path d="M0 0 C78.21 0 156.42 0 237 0 C236.34 0.99 235.68 1.98 235 3 C267.67 3.33 300.34 3.66 334 4 C334 4.33 334 4.66 334 5 C332.94480447 5.00358253 332.94480447 5.00358253 331.86829185 5.00723743 C314.6972017 5.06655025 297.52625987 5.14220336 280.35532188 5.23571491 C272.05134735 5.28054969 263.74741453 5.31999224 255.44335938 5.34643555 C248.19976636 5.36951595 240.95630671 5.4030246 233.7128197 5.44870156 C229.88267818 5.4724994 226.05266765 5.49131565 222.22245407 5.49761391 C218.60591904 5.50372635 214.98971855 5.52394338 211.37330818 5.55427551 C209.43657977 5.56705008 207.4997728 5.56550278 205.56300354 5.5632782 C182.91782269 5.80211195 161.38977728 14.2254546 145 30 C134.55115607 41.75082921 127.5988767 55.58214727 127.75 71.4375 C127.74226563 72.24509766 127.73453125 73.05269531 127.7265625 73.88476562 C127.76809776 86.7710786 132.97267648 99.75720166 141.92578125 109.1328125 C148.56248452 115.10709529 156.48415064 121.93217849 165 125 C167.72183194 124.72837928 167.72183194 124.72837928 170 123 C172.30768672 121.60629861 174.63310874 120.29509145 177 119 C177.66 119.33 178.32 119.66 179 120 C178.67 120.99 178.34 121.98 178 123 C177.01 123 176.02 123 175 123 C174.67 123.66 174.34 124.32 174 125 C172.33333333 125.66666667 170.66666667 126.33333333 169 127 C168.67 127.66 168.34 128.32 168 129 C169.98 129.33 171.96 129.66 174 130 C169.59611422 133.82985586 164.76236862 136.49674514 159.6875 139.3125 C136.14582405 152.5870558 113.1327668 167.11108318 92 184 C91.37528809 184.49467773 90.75057617 184.98935547 90.10693359 185.49902344 C80.7006677 192.95702884 71.66729615 200.69421776 63 209 C62.17886719 209.77988281 61.35773437 210.55976563 60.51171875 211.36328125 C55.65657125 216.08426233 51.34150272 221.10352251 47.11328125 226.390625 C45.3226062 228.60166185 43.47909902 230.71187156 41.5625 232.8125 C25.31426403 251.33399835 13.9389352 274.1221296 3 296 C14.88 296 26.76 296 39 296 C39 296.33 39 296.66 39 297 C27.78 297 16.56 297 5 297 C5 297.66 5 298.32 5 299 C3.35 299 1.7 299 0 299 C0 200.33 0 101.66 0 0 Z " fill="#F0F3F2" transform="translate(0,0)"/>
<path d="M0 0 C-0.60129024 6.44132166 -2.11038093 12.26226057 -4 18.4375 C-7.13617911 28.91772605 -10.07420006 39.44279402 -12.9375 50 C-13.24192017 51.12122757 -13.24192017 51.12122757 -13.55249023 52.2651062 C-14.70454166 56.50929401 -15.85363762 60.75427138 -17 65 C-17.66 65 -18.32 65 -19 65 C-20.77643163 62.76246465 -22.43237932 60.52777227 -24.0625 58.1875 C-24.52205078 57.54490234 -24.98160156 56.90230469 -25.45507812 56.24023438 C-27.41918817 53.4570241 -28.91267621 51.26197136 -30 48 C-34.81504071 52.00211176 -39.11603155 56.13240348 -43.16015625 60.91015625 C-45.13761436 63.15631356 -47.22961266 65.22660347 -49.375 67.3125 C-53.46980823 71.35880796 -57.10574983 75.64723726 -60.69921875 80.140625 C-62.99704973 82.99633345 -65.36819499 85.77667313 -67.75 88.5625 C-102.6470064 130.47126967 -125.78619083 179.0734936 -138 232 C-149.55 232 -161.1 232 -173 232 C-170.74492693 221.85217117 -170.74492693 221.85217117 -169.51953125 218.30859375 C-169.24633057 217.51743164 -168.97312988 216.72626953 -168.69165039 215.91113281 C-168.25647095 214.68668457 -168.25647095 214.68668457 -167.8125 213.4375 C-167.50497803 212.56834961 -167.19745605 211.69919922 -166.88061523 210.80371094 C-162.18456167 197.74038291 -156.34995696 185.27172119 -149.99853516 172.93945312 C-149.34859272 171.67707104 -148.70223977 170.41283229 -148.06005859 169.14648438 C-139.80929253 152.89801646 -129.88195071 137.60264669 -119 123 C-118.50918945 122.33790527 -118.01837891 121.67581055 -117.51269531 120.99365234 C-110.18468795 111.14307547 -102.49571511 101.70854233 -94.34960938 92.52441406 C-92.67582202 90.6338337 -91.02602024 88.72296628 -89.375 86.8125 C-79.97566241 76.12935045 -70.12590529 65.9922639 -60 56 C-60.66769409 56.57681519 -60.66769409 56.57681519 -61.34887695 57.1652832 C-64.91471469 60.23553478 -68.51550158 63.24420825 -72.1875 66.1875 C-77.81637023 70.77255501 -83.12487659 75.63392523 -88.43383789 80.58081055 C-89.52693951 81.57133271 -90.63998947 82.54008782 -91.76733398 83.49145508 C-95.84137853 86.93507257 -99.52364982 90.56801881 -103.13671875 94.49609375 C-104.51896111 95.97491449 -105.9036017 97.45145554 -107.28881836 98.92749023 C-108.22344315 99.93650653 -109.14700319 100.9558824 -110.05932617 101.98510742 C-117.71831761 110.58422127 -117.71831761 110.58422127 -123.60400391 111.65673828 C-126.80959593 111.65977923 -129.83340188 111.48072619 -133 111 C-128.16932427 105.02521687 -122.79462594 100.03237985 -117 95 C-116.17024658 94.27707764 -116.17024658 94.27707764 -115.32373047 93.53955078 C-108.36957593 87.48953252 -101.37303066 81.53952568 -94 76 C-100.8361447 79.73419465 -107.2759677 84.05193564 -113.75 88.375 C-114.34482178 88.77161835 -114.93964355 89.16823669 -115.55249023 89.57687378 C-130.21196437 99.36713979 -144.56967968 109.56007248 -158 121 C-158.5451123 121.45632812 -159.09022461 121.91265625 -159.65185547 122.3828125 C-167.2343302 128.73305716 -174.50104463 135.32172576 -181.5 142.3125 C-182.14606201 142.95775635 -182.79212402 143.6030127 -183.45776367 144.26782227 C-199.66596975 160.66486181 -213.51613731 179.02556215 -225 199 C-225.50829346 199.87543457 -225.50829346 199.87543457 -226.02685547 200.76855469 C-234.98041751 215.7509718 -234.98041751 215.7509718 -241 232 C-252.88 232 -264.76 232 -277 232 C-273.61777473 221.85332419 -273.61777473 221.85332419 -271.94140625 218.6328125 C-271.37220459 217.53706909 -271.37220459 217.53706909 -270.79150391 216.41918945 C-270.18314697 215.28356567 -270.18314697 215.28356567 -269.5625 214.125 C-268.911604 212.9033313 -268.911604 212.9033313 -268.24755859 211.65698242 C-258.07301262 192.85446477 -246.132746 175.15991884 -231.4453125 159.59375 C-229.41592087 157.44116846 -227.47543338 155.25485867 -225.5625 153 C-217.48606576 143.7284848 -208.62083658 135.63203315 -199 128 C-197.78172054 126.99476775 -196.56571149 125.98677978 -195.3515625 124.9765625 C-185.90459472 117.14197458 -176.1565462 109.88771604 -166 103 C-165.47515015 102.64243622 -164.95030029 102.28487244 -164.4095459 101.91647339 C-155.0890633 95.57863001 -145.59252108 89.64438671 -135.875 83.9375 C-134.48652361 83.11746398 -133.09826313 82.29706229 -131.71020508 81.47631836 C-124.86741036 77.43427623 -118.00982157 73.41775542 -111.14453125 69.4140625 C-82.08935357 52.62335246 -82.08935357 52.62335246 -54.74609375 33.22265625 C-53 32 -53 32 -51 32 C-51 31.34 -51 30.68 -51 30 C-52.28777344 29.61714844 -52.28777344 29.61714844 -53.6015625 29.2265625 C-57.15732514 27.94321828 -60.13692247 26.31784652 -63.375 24.375 C-64.43460938 23.74335937 -65.49421875 23.11171875 -66.5859375 22.4609375 C-67.38257813 21.97882813 -68.17921875 21.49671875 -69 21 C-68 19 -68 19 -64.59545898 17.7824707 C-63.06473503 17.32219008 -61.53137232 16.87063383 -59.99609375 16.42578125 C-58.76243828 16.05839088 -58.76243828 16.05839088 -57.50386047 15.68357849 C-54.81726991 14.88557302 -52.12754138 14.09878682 -49.4375 13.3125 C-47.60366973 12.7710881 -45.77001089 12.22909518 -43.93652344 11.68652344 C-40.30188426 10.61234186 -36.66593316 9.54278553 -33.02880859 8.47705078 C-28.72964933 7.21651076 -24.43612504 5.93839611 -20.14453125 4.65234375 C-18.01313998 4.0178288 -15.88164091 3.38367576 -13.75 2.75 C-12.79536865 2.46294189 -11.8407373 2.17588379 -10.85717773 1.88012695 C-9.99165283 1.62577881 -9.12612793 1.37143066 -8.234375 1.109375 C-7.13947754 0.78404785 -7.13947754 0.78404785 -6.02246094 0.45214844 C-4 0 -4 0 0 0 Z " fill="#0D3D68" transform="translate(281,63)"/>
<path d="M0 0 C1.37106315 0.00056551 2.7421269 0.00024483 4.1131897 -0.00088501 C7.80049161 -0.00145406 11.48766089 0.01022695 15.17493224 0.02426291 C19.04128184 0.03684563 22.90763516 0.03794667 26.77400208 0.04031372 C34.07997882 0.04650648 41.38589503 0.06288717 48.69184524 0.0830127 C57.01599629 0.10544068 65.34015037 0.11638241 73.66432416 0.12640357 C90.77340269 0.14725558 107.88242247 0.18238826 124.99145508 0.22705078 C123.59906035 3.27851459 122.18937816 6.32169052 120.77661133 9.36376953 C120.19006775 10.65003235 120.19006775 10.65003235 119.5916748 11.96228027 C116.34921034 18.90946481 112.75545538 24.08394818 106.99145508 29.22705078 C106.02272461 30.11070313 106.02272461 30.11070313 105.03442383 31.01220703 C94.23505593 39.96402523 82.22560343 39.77757569 68.88957214 39.68234062 C65.64870598 39.66022486 62.40876176 39.66424709 59.16784668 39.67481995 C51.11552215 39.6963601 43.06340728 39.67930367 35.0111084 39.65332031 C28.20186982 39.63173642 21.39322957 39.63023219 14.58399963 39.65623665 C11.42509942 39.66052256 8.26729806 39.6361388 5.10852051 39.61070251 C-10.26086663 39.59918292 -27.91778346 40.51154181 -40.00854492 51.22705078 C-40.91604492 52.01080078 -41.82354492 52.79455078 -42.75854492 53.60205078 C-49.46811804 61.42988609 -51.74203898 67.93045498 -51.00854492 78.22705078 C-49.34864649 87.60776119 -43.66039641 94.56354179 -36.07104492 100.03955078 C-31.86740323 102.80764562 -27.57317682 105.11379527 -23.00854492 107.22705078 C-25.10628749 112.23417836 -28.73469123 113.93335726 -33.25854492 116.60205078 C-34.01006836 117.07771484 -34.7615918 117.55337891 -35.53588867 118.04345703 C-41.1141168 121.36313555 -41.1141168 121.36313555 -45.19213867 120.74267578 C-61.67352149 111.8733602 -74.59270498 100.14898383 -81.00854492 82.22705078 C-83.69945125 70.12654209 -83.24537136 56.48622762 -78.00854492 45.22705078 C-77.59604492 44.31955078 -77.18354492 43.41205078 -76.75854492 42.47705078 C-66.98118058 22.9223221 -49.39446637 10.59162836 -29.19604492 3.35205078 C-19.45914305 0.59316631 -10.090655 -0.05757587 0 0 Z " fill="#124D7F" transform="translate(209.008544921875,4.77294921875)"/>
<path d="M0 0 C12.2479876 3.72683415 23.22689225 10.87258543 33 19 C33.73863281 19.61230469 34.47726563 20.22460938 35.23828125 20.85546875 C43.30032493 28.19740756 50.27769237 39.56898296 51.21533203 50.51342773 C51.70186298 61.72629173 52.064946 72.72897948 47 83 C46.55269531 83.93714844 46.10539062 84.87429687 45.64453125 85.83984375 C42.4345945 92.11341986 38.58582239 97.6600646 34 103 C33.50242187 103.59296875 33.00484375 104.1859375 32.4921875 104.796875 C20.97991582 117.4083083 4.07826462 123.82169938 -12 128 C-12.5892627 128.17724609 -13.17852539 128.35449219 -13.78564453 128.53710938 C-18.56246867 129.53566049 -23.54335106 129.22616125 -28.4050293 129.24023438 C-30.39969925 129.24981837 -32.39422839 129.28095171 -34.38867188 129.3125 C-42.99864097 129.34681976 -50.7114297 128.33669485 -59 126 C-59.3993646 119.51940168 -57.9254131 113.85946988 -56.25 107.625 C-55.99734375 106.635 -55.7446875 105.645 -55.484375 104.625 C-53.85579305 98.45267441 -51.79832775 92.7385476 -49 87 C-48.27433838 87.07710205 -47.54867676 87.1542041 -46.80102539 87.23364258 C-27.69445169 89.1808889 -7.32111813 89.79050674 9 78 C15.3582528 72.47522603 19.21764346 65.6378064 20.37890625 57.26953125 C20.75487884 48.67067432 18.30799299 41.52561624 12.9375 34.8125 C5.85423906 27.30635781 -3.98008872 22.76293187 -13 18 C-9.06511206 11.5621508 -5.08659044 5.58284316 0 0 Z " fill="#032246" transform="translate(212,166)"/>
<path d="M0 0 C14.04796315 4.11865798 26.52420045 13.00234897 37 23 C37.81855469 23.76570313 38.63710938 24.53140625 39.48046875 25.3203125 C52.85471159 38.9017295 59.25562954 57.21914899 59.5 76 C59.26708062 95.29562805 51.97990752 116.13894077 38.03125 129.94921875 C36.06398994 131.69327045 34.04500988 133.34841888 32 135 C31.47019531 135.48855469 30.94039063 135.97710937 30.39453125 136.48046875 C18.0412979 147.85764415 0.34859196 155.57929894 -16 159 C-18.36328125 158.59765625 -18.36328125 158.59765625 -20 158 C-19.24976563 157.70867187 -18.49953125 157.41734375 -17.7265625 157.1171875 C0.79053331 149.70102066 18.24332874 137.52860876 27 119 C33.64962437 102.16150789 36.04793488 85.10978927 29 68 C28.649375 67.13117188 28.29875 66.26234375 27.9375 65.3671875 C18.82015818 45.16974278 -0.91213949 34.26684841 -20 25 C-17.01199823 20.29533375 -13.66786614 16.12740154 -10 11.9375 C-6.58837499 8.0149757 -3.21470318 4.08792784 0 0 Z " fill="#114774" transform="translate(237,135)"/>
<path d="M0 0 C-1.02738281 0.4125 -2.05476563 0.825 -3.11328125 1.25 C-11.95424397 4.89530558 -19.55572651 8.88760931 -27 15 C-28.14855469 15.87011719 -28.14855469 15.87011719 -29.3203125 16.7578125 C-39.37486823 24.8505037 -46.53032809 36.65442319 -50 49 C-50.4125 50.216875 -50.825 51.43375 -51.25 52.6875 C-54.67328036 67.93665797 -51.22988509 84.17764448 -42.96484375 97.23046875 C-35.9917143 107.05939277 -26.21474278 117.00360128 -15 122 C-16.45030931 125.69818955 -18.13263237 126.9832522 -21.578125 128.875 C-22.49207031 129.38546875 -23.40601563 129.8959375 -24.34765625 130.421875 C-25.30542969 130.94265625 -26.26320312 131.4634375 -27.25 132 C-29.13128317 133.03972422 -31.01151944 134.0813453 -32.890625 135.125 C-34.22383789 135.85783203 -34.22383789 135.85783203 -35.58398438 136.60546875 C-37.63427174 137.78890059 -39.51507645 139.04157955 -41.421875 140.4375 C-44 142 -44 142 -46.078125 142 C-50.70243699 139.59385393 -54.29069208 135.59724424 -58 132 C-59.06347656 130.97519531 -59.06347656 130.97519531 -60.1484375 129.9296875 C-73.59253797 115.95419966 -78.62947792 98.11524371 -78.3347168 79.15942383 C-77.60955902 56.55684731 -68.07435142 38.56651525 -52 23 C-40.37435066 12.10212004 -26.19476895 5.3027841 -11 1 C-10.13890625 0.74347656 -9.2778125 0.48695312 -8.390625 0.22265625 C-5.04988196 -0.71006945 -3.35953016 -1.11984339 0 0 Z " fill="#04284E" transform="translate(172,7)"/>
<path d="M0 0 C0 3.45470024 -0.35534723 3.69491155 -2.5 6.1875 C-16.18882165 23.88912043 -21.82975871 46.92938693 -20 69 C-18.99721973 75.34288727 -17.45847651 81.78277241 -14.8046875 87.63671875 C-13.79648717 90.59769546 -14.11571667 92.01522863 -15 95 C-16.55053711 97.03637695 -16.55053711 97.03637695 -18.52734375 98.98828125 C-19.59178711 100.04692383 -19.59178711 100.04692383 -20.67773438 101.12695312 C-21.42345703 101.84818359 -22.16917969 102.56941406 -22.9375 103.3125 C-24.0502832 104.42334961 -24.0502832 104.42334961 -25.18554688 105.55664062 C-30.71921083 111 -30.71921083 111 -33 111 C-33.65264429 108.98135603 -34.29678746 106.95996273 -34.9375 104.9375 C-35.29714844 103.81214844 -35.65679687 102.68679687 -36.02734375 101.52734375 C-42.58415775 77.74901828 -36.40327575 51.90130881 -24.75 30.8125 C-18.06239068 19.15343264 -9.77573556 9.21415075 0 0 Z " fill="#062346" transform="translate(79,102)"/>
<path d="M0 0 C6.27 0 12.54 0 19 0 C15.625 10.125 15.625 10.125 13.73828125 14.69140625 C13.34189453 15.65498047 12.94550781 16.61855469 12.53710938 17.61132812 C12.13298828 18.58521484 11.72886719 19.55910156 11.3125 20.5625 C10.89677734 21.57119141 10.48105469 22.57988281 10.05273438 23.61914062 C9.03784555 26.08053766 8.0193017 28.54042712 7 31 C0.07 31 -6.86 31 -14 31 C-12.04717693 24.49058977 -10.56213084 19.6180216 -7.5625 13.8125 C-6.98628906 12.68457031 -6.41007812 11.55664062 -5.81640625 10.39453125 C-3.94317426 6.89380309 -1.96987126 3.44727471 0 0 Z " fill="#032143" transform="translate(77,264)"/>
<path d="M0 0 C0.72960937 0.04189453 1.45921875 0.08378906 2.2109375 0.12695312 C2.95601562 0.14951172 3.70109375 0.17207031 4.46875 0.1953125 C6.3003465 0.25401752 8.13090403 0.34369556 9.9609375 0.43945312 C8.69769983 3.81018061 7.25665448 6.77336694 5.31640625 9.80273438 C4.80400391 10.60775391 4.29160156 11.41277344 3.76367188 12.2421875 C3.23064453 13.07041016 2.69761719 13.89863281 2.1484375 14.75195312 C1.10010418 16.39378046 0.05192558 18.03570659 -0.99609375 19.67773438 C-1.5161499 20.47066895 -2.03620605 21.26360352 -2.57202148 22.08056641 C-4.06823326 24.39665415 -4.06823326 24.39665415 -5.19555664 26.81005859 C-6.31665963 29.0218784 -7.26305024 30.70532388 -9.0390625 32.43945312 C-12.36497493 33.3934028 -15.42730476 33.20501823 -18.8515625 32.93945312 C-19.73521484 32.90335938 -20.61886719 32.86726563 -21.52929688 32.83007812 C-23.70109222 32.73616265 -25.87064365 32.5926682 -28.0390625 32.43945312 C-23.57393263 23.19585094 -17.7185867 15.19815333 -11.36523438 7.17358398 C-9.87892655 5.28594291 -9.87892655 5.28594291 -8.1875 2.48242188 C-5.52039306 -0.05375436 -3.60872436 -0.08201646 0 0 Z " fill="#07284D" transform="translate(112.0390625,218.560546875)"/>
<path d="M0 0 C1.32 0 2.64 0 4 0 C1.04556117 10.16147901 -5.92039131 17.50333505 -14 24 C-14.52851563 24.48726563 -15.05703125 24.97453125 -15.6015625 25.4765625 C-27.95491252 36.85624946 -45.64972612 44.57894702 -62 48 C-64.36328125 47.59765625 -64.36328125 47.59765625 -66 47 C-65.24976563 46.70867187 -64.49953125 46.41734375 -63.7265625 46.1171875 C-42.81179558 37.74074432 -26.99762863 24.36726206 -17 4 C-16.34 4 -15.68 4 -15 4 C-14.97287934 5.43739513 -14.95354933 6.87493863 -14.9375 8.3125 C-14.92589844 9.11300781 -14.91429687 9.91351563 -14.90234375 10.73828125 C-15 13 -15 13 -16 16 C-13.69 16.33 -11.38 16.66 -9 17 C-9 16.34 -9 15.68 -9 15 C-8.34 15 -7.68 15 -7 15 C-7 13.68 -7 12.36 -7 11 C-6.34 11 -5.68 11 -5 11 C-4.67 10.34 -4.34 9.68 -4 9 C-3.505 8.5875 -3.01 8.175 -2.5 7.75 C-0.42853955 5.33329614 -0.34503461 3.10531146 0 0 Z " fill="#0C3052" transform="translate(283,246)"/>
<path d="M0 0 C0.66 0 1.32 0 2 0 C1.67 1.65 1.34 3.3 1 5 C1.99 4.67 2.98 4.34 4 4 C4.33 3.34 4.66 2.68 5 2 C6.32 2.33 7.64 2.66 9 3 C6.35107486 5.68860941 3.67434592 8.32529147 0.8984375 10.8828125 C0.05418213 11.66084229 0.05418213 11.66084229 -0.80712891 12.45458984 C-2.05985814 13.60570097 -3.31488086 14.75431946 -4.57177734 15.90087891 C-8.47477554 19.50500304 -12.16666415 23.21698859 -15.75 27.140625 C-16.56001465 28.00800293 -17.3700293 28.87538086 -18.20458984 29.76904297 C-19.78552748 31.47117413 -21.33958836 33.19878108 -22.86181641 34.95361328 C-26.2618922 38.57013166 -28.46399986 40.7650519 -33.47949219 41.53222656 C-36.70158243 41.53833396 -39.80285615 41.38559455 -43 41 C-38.16932427 35.02521687 -32.79462594 30.03237985 -27 25 C-26.17024658 24.27707764 -26.17024658 24.27707764 -25.32373047 23.53955078 C-19.62070808 18.57800018 -13.94097801 13.64200504 -7.875 9.125 C-4.31763205 6.4388242 -2.30589252 3.78166373 0 0 Z " fill="#194265" transform="translate(191,133)"/>
<path d="M0 0 C-4.25891034 5.91515325 -8.87569214 11.42909034 -13.68457031 16.89892578 C-14.18311523 17.4711084 -14.68166016 18.04329102 -15.1953125 18.6328125 C-15.68386719 19.19049316 -16.17242187 19.74817383 -16.67578125 20.32275391 C-18.23100403 22.19108612 -18.23100403 22.19108612 -19.8203125 25.40625 C-22 28 -22 28 -23.90087891 28.46826172 C-26.21375318 28.59149911 -28.43900461 28.52446736 -30.75 28.375 C-31.93916016 28.33439453 -31.93916016 28.33439453 -33.15234375 28.29296875 C-35.10273366 28.22247273 -37.05171901 28.11485499 -39 28 C-35.5906287 23.19191227 -32.02977029 18.88557259 -27.79296875 14.7890625 C-25.8899865 12.89022618 -24.131519 10.90966626 -22.375 8.875 C-21.78589844 8.21242187 -21.19679687 7.54984375 -20.58984375 6.8671875 C-18.83819077 4.87482147 -18.83819077 4.87482147 -16.9375 2 C-11.88760433 -1.43822684 -5.92093162 -0.36054387 0 0 Z " fill="#123B60" transform="translate(153,181)"/>
<path d="M0 0 C13.53 0 27.06 0 41 0 C40.34 0.99 39.68 1.98 39 3 C71.67 3.33 104.34 3.66 138 4 C138 4.33 138 4.66 138 5 C91.47 5 44.94 5 -3 5 C-2.67 4.34 -2.34 3.68 -2 3 C-1.34 3 -0.68 3 0 3 C0 2.01 0 1.02 0 0 Z " fill="#CDE3ED" transform="translate(196,0)"/>
<path d="M0 0 C-0.99 1.32 -1.98 2.64 -3 4 C-2.34 4 -1.68 4 -1 4 C-1 4.66 -1 5.32 -1 6 C0.32 6.66 1.64 7.32 3 8 C2.67 8.66 2.34 9.32 2 10 C2.99 10 3.98 10 5 10 C5.25 12.25 5.25 12.25 5 15 C3.0625 17.1875 3.0625 17.1875 1 19 C0.67 19.66 0.34 20.32 0 21 C-1.99571323 21.67939174 -3.99594773 22.34561559 -6 23 C-8.1385485 25.1385485 -8.42655063 26.13275314 -9 29 C-9.94875 29.12375 -10.8975 29.2475 -11.875 29.375 C-15.08667191 29.71687177 -15.08667191 29.71687177 -17 32 C-17.99 32 -18.98 32 -20 32 C-20.24234375 32.63035156 -20.4846875 33.26070312 -20.734375 33.91015625 C-22.3328939 36.54968592 -23.30737933 36.71185375 -26.25 37.4375 C-29.4898471 38.38094348 -31.68390378 39.29133314 -34.1875 41.5625 C-37.10070946 44.08728154 -39.30862915 45.0332124 -43 46 C-43.66 45.34 -44.32 44.68 -45 44 C-44.15252197 43.52981445 -43.30504395 43.05962891 -42.43188477 42.57519531 C-34.28571994 38.01304374 -26.42449139 33.14284819 -18.68286133 27.92578125 C-16.91002682 26.7314924 -15.13216633 25.54498043 -13.35351562 24.359375 C-7.16253384 20.24911348 -7.16253384 20.24911348 -1.25610352 15.74707031 C1 14 1 14 3 14 C3 13.34 3 12.68 3 12 C2.14148438 11.74476562 1.28296875 11.48953125 0.3984375 11.2265625 C-3.15732514 9.94321828 -6.13692247 8.31784652 -9.375 6.375 C-10.43460938 5.74335937 -11.49421875 5.11171875 -12.5859375 4.4609375 C-13.38257813 3.97882813 -14.17921875 3.49671875 -15 3 C-14 1 -14 1 -11.85546875 0.078125 C-10.97503906 -0.19515625 -10.09460938 -0.4684375 -9.1875 -0.75 C-8.31480469 -1.03359375 -7.44210938 -1.3171875 -6.54296875 -1.609375 C-3.59945308 -2.06152794 -2.46323577 -1.58473909 0 0 Z " fill="#26587F" transform="translate(227,81)"/>
<path d="M0 0 C0 3.10551666 -0.5393715 4.35261084 -2 7 C-2.66 7 -3.32 7 -4 7 C-4 9.64 -4 12.28 -4 15 C-4.66 15 -5.32 15 -6 15 C-6.33 14.34 -6.66 13.68 -7 13 C-11.16864997 20.8589885 -11.59531516 28.30483497 -11.46655273 36.98681641 C-11.43744956 39.12871256 -11.4460099 41.26814432 -11.45898438 43.41015625 C-11.44629269 50.51812002 -11.16013918 56.54560434 -8 63 C-7.34 63 -6.68 63 -6 63 C-5.87625 63.886875 -5.7525 64.77375 -5.625 65.6875 C-5.05587264 68.70387502 -4.23385564 71.20326054 -3 74 C-6.92408209 70.42096651 -9.4424518 66.86902978 -11.75 62.0625 C-12.05292969 61.46759766 -12.35585937 60.87269531 -12.66796875 60.25976562 C-17.7877822 49.84947827 -17.85369826 34.49903764 -14.375 23.5 C-10.86830565 14.67152654 -6.48647749 6.94979732 0 0 Z " fill="#183F60" transform="translate(143,32)"/>
<path d="M0 0 C0.66 0.33 1.32 0.66 2 1 C0.06353912 2.64706927 -1.87394628 4.2928962 -3.8125 5.9375 C-4.3998291 6.43604492 -4.9871582 6.93458984 -5.59228516 7.44824219 C-9.31434674 10.59899192 -13.07661404 13.69121631 -16.875 16.75 C-20.59215945 19.76783857 -23.98011798 22.91381189 -27.296875 26.359375 C-30.27738428 29.23050779 -33.62947089 31.60998845 -37 34 C-37 33.34 -37 32.68 -37 32 C-39.475 32.495 -39.475 32.495 -42 33 C-37.83709731 24.35397134 -30.77340594 20.0930974 -23 15 C-22.15663086 14.44489746 -21.31326172 13.88979492 -20.44433594 13.31787109 C-15.29876675 9.93801132 -10.13532745 6.58702191 -4.9543457 3.26171875 C-3.29322944 2.1893079 -1.64514088 1.09676058 0 0 Z " fill="#E6F3F7" transform="translate(186,138)"/>
<path d="M0 0 C-1.62758832 4.02563265 -4.47657721 6.80060695 -7.4375 9.875 C-23.22756793 26.66519288 -35.97838542 45.80996267 -47 66 C-47.66 66 -48.32 66 -49 66 C-44.79851011 52.59098971 -44.79851011 52.59098971 -41.375 49.5625 C-39.64395052 47.90585944 -39.64395052 47.90585944 -39.6875 44.5 C-39.460625 43.345 -39.23375 42.19 -39 41 C-37.0282696 39.94535351 -35.02237052 38.95394836 -33 38 C-29.32251607 34.06292897 -26.94282082 29.99582496 -25 25 C-23 22.6875 -23 22.6875 -21 21 C-20.34 21 -19.68 21 -19 21 C-18.896875 20.38125 -18.79375 19.7625 -18.6875 19.125 C-18 17 -18 17 -15 15 C-14.690625 14.01 -14.38125 13.02 -14.0625 12 C-13 9 -13 9 -11 7.875 C-10.34 7.58625 -9.68 7.2975 -9 7 C-7.6438911 4.83022576 -7 3.5637264 -7 1 C-4.53721199 -0.231394 -2.7204945 -0.07159196 0 0 Z " fill="#0F2844" transform="translate(98,205)"/>
<path d="M0 0 C-1.58074564 0.81752303 -3.16471223 1.62881997 -4.75 2.4375 C-5.63171875 2.88996094 -6.5134375 3.34242187 -7.421875 3.80859375 C-11.1795868 5.54511208 -14.3793802 6.1239996 -18.50518799 6.15821838 C-19.40258698 6.1680072 -20.29998596 6.17779602 -21.22457886 6.18788147 C-22.20137604 6.19363693 -23.17817322 6.1993924 -24.18457031 6.20532227 C-25.2190329 6.21522186 -26.25349548 6.22512146 -27.31930542 6.23532104 C-30.73888866 6.26691084 -34.15848579 6.29168363 -37.578125 6.31640625 C-39.94895794 6.33697794 -42.31978723 6.35797447 -44.69061279 6.37937927 C-50.93112227 6.43457765 -57.17166473 6.48399684 -63.41223145 6.53222656 C-69.78005916 6.58245784 -76.14783897 6.63813543 -82.515625 6.69335938 C-95.01037575 6.80091365 -107.50516808 6.90236475 -120 7 C-115.75551186 4.61605062 -111.83799632 4.70737856 -107.07226562 4.71289062 C-106.17102463 4.70605759 -105.26978363 4.69922455 -104.3412323 4.69218445 C-102.38622021 4.67860473 -100.43117267 4.66954613 -98.47612 4.66447449 C-95.38292045 4.6561875 -92.29001642 4.63568489 -89.19689941 4.61193848 C-81.51558648 4.55551553 -73.83420178 4.52031126 -66.152771 4.48431396 C-59.66065498 4.45308303 -53.16868214 4.41389969 -46.67668152 4.36405945 C-43.62773737 4.3439739 -40.57890378 4.33566825 -37.52990723 4.32775879 C-35.66251217 4.31478767 -33.79512081 4.30126754 -31.92773438 4.28710938 C-31.07878098 4.28809128 -30.22982758 4.28907318 -29.35514832 4.29008484 C-23.87620938 4.24735686 -23.87620938 4.24735686 -19 2 C-19.94875 2.185625 -20.8975 2.37125 -21.875 2.5625 C-25 3 -25 3 -27 2 C-29.3329866 1.95977609 -31.66706666 1.95679753 -34 2 C-34.495 1.01 -34.495 1.01 -35 0 C-34.13721436 0.00523682 -33.27442871 0.01047363 -32.38549805 0.01586914 C-29.18188727 0.03291996 -25.97829964 0.04545453 -22.7746582 0.05493164 C-21.38858275 0.05995777 -20.00251259 0.06677966 -18.61645508 0.07543945 C-16.62323285 0.08758018 -14.62997181 0.09271021 -12.63671875 0.09765625 C-11.43748779 0.10289307 -10.23825684 0.10812988 -9.00268555 0.11352539 C-0.61121659 -0.20373886 -0.61121659 -0.20373886 0 0 Z " fill="#093152" transform="translate(311,38)"/>
<path d="M0 0 C0.66 0 1.32 0 2 0 C2.02717692 2.06242617 2.0464758 4.12495703 2.0625 6.1875 C2.07410156 7.33605469 2.08570312 8.48460937 2.09765625 9.66796875 C2 13 2 13 1 18 C8.59 18 16.18 18 24 18 C24.185625 14.5659375 24.185625 14.5659375 24.375 11.0625 C24.5859375 7.16015625 24.5859375 7.16015625 25 4 C25.66 3.67 26.32 3.34 27 3 C27.495 6.465 27.495 6.465 28 10 C28.66 10 29.32 10 30 10 C29.95875 9.05125 29.9175 8.1025 29.875 7.125 C30 4 30 4 32 2 C31.40247977 8.27396241 30.39316676 13.7307496 29 20 C17.45 20 5.9 20 -6 20 C-3.75 9.875 -3.75 9.875 -1.875 4.9375 C-1.34519531 3.52791016 -1.34519531 3.52791016 -0.8046875 2.08984375 C-0.53914063 1.40019531 -0.27359375 0.71054687 0 0 Z " fill="#031E3B" transform="translate(114,275)"/>
<path d="M0 0 C0.33 0 0.66 0 1 0 C1.44459066 3.03803618 1.58403993 5.17121952 -0.23046875 7.74609375 C-1.29958729 8.93136344 -2.37801288 10.10829399 -3.46484375 11.27734375 C-6.53393808 14.72128929 -7.93279713 17.79034833 -8.1875 22.375 C-8.125625 23.24125 -8.06375 24.1075 -8 25 C-8.99 25.33 -9.98 25.66 -11 26 C-13.86208339 29.02147302 -14.55912561 31.68973472 -15.1875 35.75 C-15.42533203 37.22726563 -15.42533203 37.22726563 -15.66796875 38.734375 C-15.77753906 39.48203125 -15.88710937 40.2296875 -16 41 C-17.32 40.34 -18.64 39.68 -20 39 C-19.938125 39.886875 -19.87625 40.77375 -19.8125 41.6875 C-20.027125 45.47920837 -20.97287794 46.84669901 -23 50 C-23.81158451 52.09261497 -24.54538788 54.19856695 -25.25390625 56.328125 C-26 58 -26 58 -28 59 C-27.57821121 51.75211918 -25.1512807 46.14205089 -22.0625 39.625 C-21.57177002 38.57368896 -21.08104004 37.52237793 -20.57543945 36.43920898 C-8.29905606 10.4733475 -8.29905606 10.4733475 0 0 Z " fill="#143656" transform="translate(146,210)"/>
<path d="M0 0 C0 3.45470024 -0.35534723 3.69491155 -2.5 6.1875 C-9.47648547 15.13128825 -14.13103815 26.41126232 -18 37 C-18.99 36.67 -19.98 36.34 -21 36 C-21 34.68 -21 33.36 -21 32 C-22.485 32.495 -22.485 32.495 -24 33 C-22.27831472 20.18042447 -8.72091154 8.6394077 0 0 Z " fill="#051431" transform="translate(79,102)"/>
<path d="M0 0 C2.60484399 2.53574201 3.22282921 4.51774832 3.34057617 8.03417969 C3.34010316 9.66348867 3.32326986 11.29284773 3.29296875 12.921875 C3.28872391 13.78186096 3.28447906 14.64184692 3.28010559 15.52789307 C3.26334116 18.2689167 3.22569345 21.00919939 3.1875 23.75 C3.17245025 25.61066645 3.15876235 27.47134445 3.14648438 29.33203125 C3.11344499 33.8883054 3.06167833 38.44402716 3 43 C-2.31106902 37.68893098 -2.17773826 28.51516943 -2.25537109 21.39794922 C-2.21646341 2.21646341 -2.21646341 2.21646341 0 0 Z " fill="#082242" transform="translate(96,70)"/>
<path d="M0 0 C0.66 0 1.32 0 2 0 C1.67 1.65 1.34 3.3 1 5 C1.99 4.67 2.98 4.34 4 4 C4.33 3.34 4.66 2.68 5 2 C6.32 2.33 7.64 2.66 9 3 C4.86139698 7.17855093 0.64254927 11.26582975 -3.625 15.3125 C-4.62660156 16.28026367 -4.62660156 16.28026367 -5.6484375 17.26757812 C-6.29296875 17.87666016 -6.9375 18.48574219 -7.6015625 19.11328125 C-8.18244629 19.66798096 -8.76333008 20.22268066 -9.36181641 20.79418945 C-11 22 -11 22 -14 22 C-15.21913043 17.61113043 -15.21913043 17.61113043 -14.296875 15.0390625 C-12.72353 12.56530922 -11.01321318 11.31499803 -8.625 9.625 C-4.72239981 6.72467273 -2.50584513 4.10958601 0 0 Z " fill="#144267" transform="translate(191,133)"/>
<path d="M0 0 C-1.54107422 0.61875 -1.54107422 0.61875 -3.11328125 1.25 C-12.85663889 5.27084377 -20.9287335 10.00806977 -29.109375 16.734375 C-31 18 -31 18 -34 18 C-34 17.34 -34 16.68 -34 16 C-33.34 16 -32.68 16 -32 16 C-32 15.34 -32 14.68 -32 14 C-32.78375 14.20625 -33.5675 14.4125 -34.375 14.625 C-35.24125 14.74875 -36.1075 14.8725 -37 15 C-37.66 14.34 -38.32 13.68 -39 13 C-28.58771045 7.42000972 -18.39954516 3.11748125 -7 0 C-6.25234375 -0.22816406 -5.5046875 -0.45632812 -4.734375 -0.69140625 C-3 -1 -3 -1 0 0 Z " fill="#1B3852" transform="translate(172,7)"/>
<path d="M0 0 C0.99 0.33 1.98 0.66 3 1 C1.66536458 2.46484375 0.33072917 3.9296875 -1.00390625 5.39453125 C-1.33261719 5.92433594 -1.66132812 6.45414063 -2 7 C-1.505 8.485 -1.505 8.485 -1 10 C-2.216875 10.391875 -3.43375 10.78375 -4.6875 11.1875 C-8.79437175 12.7365832 -11.06125421 14.68449193 -14 18 C-15.1599192 19.17337534 -16.32704416 20.33965659 -17.5 21.5 C-18.39332031 22.39525391 -18.39332031 22.39525391 -19.3046875 23.30859375 C-20.73541417 24.73602381 -22.17880782 26.15074097 -23.625 27.5625 C-26.25575713 30.26248758 -28.62096179 33.07718162 -31 36 C-31.99 35.67 -32.98 35.34 -34 35 C-33.43152344 34.3709375 -32.86304688 33.741875 -32.27734375 33.09375 C-28.70738342 29.13639832 -25.14480278 25.18134039 -21.6875 21.125 C-18.57186937 17.55076019 -15.28044516 14.17237277 -11.9375 10.8125 C-11.4427417 10.31314941 -10.9479834 9.81379883 -10.43823242 9.29931641 C-7.1118964 5.98675973 -3.7839172 2.78676842 0 0 Z " fill="#112F4E" transform="translate(77,195)"/>
<path d="M0 0 C3.9745504 0.69849772 7.26574098 2.62892769 10.75 4.5625 C11.35199219 4.89185547 11.95398438 5.22121094 12.57421875 5.56054688 C14.05170503 6.3696465 15.52616036 7.18427662 17 8 C14.90225744 13.00712758 11.27385369 14.70630648 6.75 17.375 C5.99847656 17.85066406 5.24695313 18.32632813 4.47265625 18.81640625 C-1.10401836 22.13516025 -1.10401836 22.13516025 -5.2109375 21.515625 C-8.0856829 19.95343842 -10.73165352 18.30392851 -13.375 16.375 C-14.24898437 15.74335937 -15.12296875 15.11171875 -16.0234375 14.4609375 C-16.67570313 13.97882813 -17.32796875 13.49671875 -18 13 C-17.34 12.34 -16.68 11.68 -16 11 C-16 11.66 -16 12.32 -16 13 C-14.35 13 -12.7 13 -11 13 C-11 13.66 -11 14.32 -11 15 C-10.01 15 -9.02 15 -8 15 C-7.525625 15.515625 -7.05125 16.03125 -6.5625 16.5625 C-6.046875 17.036875 -5.53125 17.51125 -5 18 C-2.89768759 17.99530794 -2.89768759 17.99530794 -1 17 C-0.34 16.01 0.32 15.02 1 14 C3.1640625 13.48828125 3.1640625 13.48828125 5.625 13.3125 C6.44226563 13.24675781 7.25953125 13.18101563 8.1015625 13.11328125 C8.72804687 13.07589844 9.35453125 13.03851563 10 13 C10 12.34 10 11.68 10 11 C10.99 11 11.98 11 13 11 C13 10.01 13 9.02 13 8 C8.39472931 6.61298183 8.39472931 6.61298183 3.6875 5.6875 C2 5 2 5 0.75 2.4375 C0.5025 1.633125 0.255 0.82875 0 0 Z " fill="#183F5E" transform="translate(169,104)"/>
<path d="M0 0 C43.89 0 87.78 0 133 0 C132.34 1.32 131.68 2.64 131 4 C130.01 3.505 130.01 3.505 129 3 C129 2.34 129 1.68 129 1 C86.43 1 43.86 1 0 1 C0 0.67 0 0.34 0 0 Z " fill="#12466C" transform="translate(201,5)"/>
<path d="M0 0 C3.77528304 1.25842768 4.10667045 2.62493429 6 6 C6.66 6.66 7.32 7.32 8 8 C10 11.55555556 10 11.55555556 10 14 C10.66 14 11.32 14 12 14 C12.71159419 16.13478257 13.42238404 18.26978093 14.12890625 20.40625 C14.70442767 22.1199102 15.29534017 23.82848671 15.90234375 25.53125 C16.18207031 26.3253125 16.46179688 27.119375 16.75 27.9375 C17.01296875 28.66839844 17.2759375 29.39929688 17.546875 30.15234375 C18 32 18 32 17 34 C17.66 34.33 18.32 34.66 19 35 C19.02693575 37.12493141 19.04636628 39.24995912 19.0625 41.375 C19.07410156 42.55835938 19.08570313 43.74171875 19.09765625 44.9609375 C19 48 19 48 18 50 C17.01 50 16.02 50 15 50 C14.96132813 48.16888672 14.96132813 48.16888672 14.921875 46.30078125 C14.41399305 29.68119098 11.20573995 14.80655994 0 2 C0 1.34 0 0.68 0 0 Z " fill="#143C5E" transform="translate(256,185)"/>
<path d="M0 0 C0.66 0.33 1.32 0.66 2 1 C1.04287109 1.79664062 1.04287109 1.79664062 0.06640625 2.609375 C-0.75988281 3.31578125 -1.58617187 4.0221875 -2.4375 4.75 C-3.26121094 5.44609375 -4.08492187 6.1421875 -4.93359375 6.859375 C-7.13440586 9.13923329 -7.29289935 10.05472128 -8 13 C-9.8203125 14.859375 -9.8203125 14.859375 -12.125 16.75 C-15.81127341 19.90135676 -19.03073139 23.13953449 -22.16015625 26.8359375 C-24.37061108 29.43592046 -26.65067553 31.9670119 -28.9375 34.5 C-29.70964844 35.3559375 -30.48179687 36.211875 -31.27734375 37.09375 C-31.84582031 37.7228125 -32.41429687 38.351875 -33 39 C-33.64892578 37.20043945 -33.64892578 37.20043945 -34 35 C-29.05026124 28.33813849 -22.74912204 22.7607806 -16.75 17.05273438 C-16.01007813 16.33021484 -15.27015625 15.60769531 -14.5078125 14.86328125 C-13.83379395 14.21657471 -13.15977539 13.56986816 -12.46533203 12.90356445 C-10.59334282 10.87209837 -10.59334282 10.87209837 -11 7 C-10.1646875 6.9071875 -10.1646875 6.9071875 -9.3125 6.8125 C-6.05522474 5.66805194 -4.3500902 3.47377916 -2 1 C-1.34 0.67 -0.68 0.34 0 0 Z " fill="#1A4C72" transform="translate(232,108)"/>
<path d="M0 0 C0.99 0.33 1.98 0.66 3 1 C4.83115792 5.72497044 4.22497944 11.26465275 4.25 16.25 C4.270625 17.26191406 4.29125 18.27382812 4.3125 19.31640625 C4.34516661 25.61289484 3.61037742 30.25716967 1 36 C0.67 36 0.34 36 0 36 C0 24.12 0 12.24 0 0 Z " fill="#06142F" transform="translate(259,209)"/>
<path d="M0 0 C3.36016893 1.12005631 4.69064913 2.37211797 7 5 C7 5.66 7 6.32 7 7 C9.75026417 7.05404449 12.49946203 7.09369306 15.25 7.125 C16.41595703 7.15013672 16.41595703 7.15013672 17.60546875 7.17578125 C21.71049459 7.21086694 24.36474297 7.05997898 28 5 C28.99 5.33 29.98 5.66 31 6 C28.75944862 7.53663484 26.50937727 9.05400704 24.25 10.5625 C23.61578125 11.00013672 22.9815625 11.43777344 22.328125 11.88867188 C17.52422708 15.06625018 17.52422708 15.06625018 14.9387207 14.73950195 C12.03966136 13.63369025 10.19527008 11.72952776 7.9375 9.625 C7.08027344 8.83351562 6.22304687 8.04203125 5.33984375 7.2265625 C4.56769531 6.49179688 3.79554687 5.75703125 3 5 C2.40316406 4.45085937 1.80632812 3.90171875 1.19140625 3.3359375 C0 2 0 2 0 0 Z " fill="#081A36" transform="translate(111,134)"/>
<path d="M0 0 C18.315 0.495 18.315 0.495 37 1 C37.495 2.98 37.495 2.98 38 5 C26.12 5 14.24 5 2 5 C2 4.34 2 3.68 2 3 C1.34 2.67 0.68 2.34 0 2 C0 1.34 0 0.68 0 0 Z " fill="#CDD2D7" transform="translate(3,294)"/>
<path d="M0 0 C-7.57544895 4.20685792 -14.20111493 7.47468643 -23 5 C-21.68 4.01 -20.36 3.02 -19 2 C-20.423125 2.2784375 -20.423125 2.2784375 -21.875 2.5625 C-25 3 -25 3 -27 2 C-29.3329866 1.95977609 -31.66706666 1.95679753 -34 2 C-34.33 1.34 -34.66 0.68 -35 0 C-34.13721436 0.00523682 -33.27442871 0.01047363 -32.38549805 0.01586914 C-29.18188727 0.03291996 -25.97829964 0.04545453 -22.7746582 0.05493164 C-21.38858275 0.05995777 -20.00251259 0.06677966 -18.61645508 0.07543945 C-16.62323285 0.08758018 -14.62997181 0.09271021 -12.63671875 0.09765625 C-10.83787231 0.10551147 -10.83787231 0.10551147 -9.00268555 0.11352539 C-0.61121659 -0.20373886 -0.61121659 -0.20373886 0 0 Z " fill="#153D63" transform="translate(311,38)"/>
<path d="M0 0 C0.99 0.33 1.98 0.66 3 1 C2.67 1.66 2.34 2.32 2 3 C2 6.3 2 9.6 2 13 C10.91 13 19.82 13 29 13 C29 13.66 29 14.32 29 15 C17.45 15 5.9 15 -6 15 C-2.625 4.875 -2.625 4.875 0 0 Z " fill="#021633" transform="translate(10,280)"/>
<path d="M0 0 C0.66 0 1.32 0 2 0 C1.00342373 2.00464288 0.00031535 3.99941463 -1.06152344 5.97045898 C-4.14214141 12.10944444 -4.4957743 17.27062167 -4.25 24.0625 C-4.23195312 25.02349609 -4.21390625 25.98449219 -4.1953125 26.97460938 C-4.14868796 29.31749227 -4.08328169 31.6581829 -4 34 C-5.485 34.495 -5.485 34.495 -7 35 C-7.02473868 31.06731133 -7.04287835 27.13465287 -7.05493164 23.2019043 C-7.06242729 21.20685232 -7.07513345 19.21182214 -7.08789062 17.21679688 C-7.09111328 15.96318359 -7.09433594 14.70957031 -7.09765625 13.41796875 C-7.10289307 12.26063232 -7.10812988 11.1032959 -7.11352539 9.91088867 C-7 7 -7 7 -6 4 C-2.9375 2.8125 -2.9375 2.8125 0 2 C0 1.34 0 0.68 0 0 Z " fill="#0E3A60" transform="translate(162,59)"/>
<path d="M0 0 C-1.65423316 4.14059572 -4.65602464 7.02315454 -7.6875 10.1875 C-12.44602841 15.23682737 -16.89024205 20.39973124 -21 26 C-21.33 24.68 -21.66 23.36 -22 22 C-21.01 21.67 -20.02 21.34 -19 21 C-18.65657551 19.66923011 -18.32380126 18.33568021 -18 17 C-17.01 16.34 -16.02 15.68 -15 15 C-14.690625 14.01 -14.38125 13.02 -14.0625 12 C-13 9 -13 9 -11 7.875 C-10.34 7.58625 -9.68 7.2975 -9 7 C-7.6438911 4.83022576 -7 3.5637264 -7 1 C-4.53721199 -0.231394 -2.7204945 -0.07159196 0 0 Z " fill="#16314E" transform="translate(98,205)"/>
<path d="M0 0 C1.32 0 2.64 0 4 0 C4 0.66 4 1.32 4 2 C-3.30553908 6.49747249 -10.57496763 10.48495784 -18.625 13.5 C-19.29917969 13.75475098 -19.97335938 14.00950195 -20.66796875 14.27197266 C-24.0170094 15.47881129 -26.38874157 16 -30 16 C-29.34 14.35 -28.68 12.7 -28 11 C-27.14728516 11.06960938 -27.14728516 11.06960938 -26.27734375 11.140625 C-21.22363913 11.37685827 -18.24963348 10.96835969 -13.90625 8.08984375 C-10.23380454 5.99022841 -6.06656579 5.08005369 -2 4 C-2 3.34 -2 2.68 -2 2 C-1.34 2 -0.68 2 0 2 C0 1.34 0 0.68 0 0 Z " fill="#12243B" transform="translate(231,277)"/>
<path d="M0 0 C0 3.46995555 -0.41313495 3.78152444 -2.5625 6.3125 C-7.03045007 11.99607372 -9.91539817 18.50225887 -13 25 C-13.4021875 24.0409375 -13.4021875 24.0409375 -13.8125 23.0625 C-14.88667752 20.66868314 -14.88667752 20.66868314 -18 20 C-12.36792123 12.87668525 -6.56367391 6.28436863 0 0 Z " fill="#15253E" transform="translate(79,102)"/>
<path d="M0 0 C2.78599571 -0.38060051 4.93372751 -0.47962905 7.6875 -0.3125 C8.38939453 -0.28994141 9.09128906 -0.26738281 9.81445312 -0.24414062 C11.5438833 -0.18531647 13.27221438 -0.09563389 15 0 C15.33 1.65 15.66 3.3 16 5 C9.73 5 3.46 5 -3 5 C-2.01 3.35 -1.02 1.7 0 0 Z " fill="#05152F" transform="translate(87,246)"/>
<path d="M0 0 C0.99 0.66 1.98 1.32 3 2 C2.68160156 2.56976563 2.36320312 3.13953125 2.03515625 3.7265625 C0.96642392 6.07374067 0.64818431 7.81989242 0.4375 10.375 C0.10634418 13.9526656 -0.36476765 17.46084832 -1 21 C-1.99 20.67 -2.98 20.34 -4 20 C-6.16715557 20.87483915 -6.16715557 20.87483915 -8 22 C-5.92957946 14.39162534 -3.14169523 7.2271408 0 0 Z " fill="#ECF1F3" transform="translate(92,273)"/>
<path d="M0 0 C0.66 0.33 1.32 0.66 2 1 C1.154375 1.71285156 0.30875 2.42570313 -0.5625 3.16015625 C-1.1085791 3.62123779 -1.6546582 4.08231934 -2.21728516 4.55737305 C-3.40900531 5.56352954 -4.60139223 6.5688968 -5.79443359 7.57348633 C-9.75078462 10.91357826 -13.62626713 14.32405255 -17.4140625 17.85546875 C-19 19 -19 19 -22 19 C-21.43597391 15.8489121 -20.74230593 13.64843167 -18.28955078 11.50585938 C-16.08777204 10.00760454 -13.84996218 8.61378835 -11.5625 7.25 C-10.39750977 6.52876953 -10.39750977 6.52876953 -9.20898438 5.79296875 C-7.76725861 4.90135884 -6.32116669 4.01674193 -4.86938477 3.14160156 C-3.22085052 2.13486967 -1.60720896 1.07147264 0 0 Z " fill="#E2F0F5" transform="translate(186,138)"/>
<path d="M0 0 C0 0.66 0 1.32 0 2 C-9.63457688 6.56466391 -19.2379321 10.28144008 -30 11 C-30.66 10.34 -31.32 9.68 -32 9 C-31.19780029 8.76289307 -30.39560059 8.52578613 -29.5690918 8.28149414 C-26.58898922 7.40039593 -23.60902384 6.51883565 -20.62915039 5.63696289 C-18.7066485 5.06816534 -16.78398908 4.49990029 -14.86132812 3.93164062 C-13.65283203 3.57392578 -12.44433594 3.21621094 -11.19921875 2.84765625 C-10.08377686 2.51773682 -8.96833496 2.18781738 -7.8190918 1.84790039 C-1.67520875 0 -1.67520875 0 0 0 Z " fill="#346388" transform="translate(258,69)"/>
<path d="M0 0 C0.33 1.32 0.66 2.64 1 4 C-16.87256016 12.68227729 -16.87256016 12.68227729 -23.38671875 11.60546875 C-24.18529297 11.30576172 -24.18529297 11.30576172 -25 11 C-24.24976563 10.70867187 -23.49953125 10.41734375 -22.7265625 10.1171875 C-16.44690165 7.6021596 -10.72870883 4.83300066 -5.05859375 1.13671875 C-3 0 -3 0 0 0 Z " fill="#091C35" transform="translate(242,282)"/>
<path d="M0 0 C0 0.66 0 1.32 0 2 C0.66 2.33 1.32 2.66 2 3 C0.10424837 6.50714051 -1.53829152 8.94461059 -5 11 C-5.99 11 -6.98 11 -8 11 C-8 10.34 -8 9.68 -8 9 C-7.34 9 -6.68 9 -6 9 C-6 8.34 -6 7.68 -6 7 C-6.78375 7.20625 -7.5675 7.4125 -8.375 7.625 C-9.24125 7.74875 -10.1075 7.8725 -11 8 C-11.66 7.34 -12.32 6.68 -13 6 C-11.21118264 4.99491199 -9.41885304 3.99607264 -7.625 3 C-6.62726563 2.443125 -5.62953125 1.88625 -4.6015625 1.3125 C-2 0 -2 0 0 0 Z " fill="#194161" transform="translate(146,14)"/>
<path d="M0 0 C0.66 0.33 1.32 0.66 2 1 C1.54109375 1.50789062 1.0821875 2.01578125 0.609375 2.5390625 C-5.64549116 9.45563739 -5.64549116 9.45563739 -10 17.625 C-11.19397213 20.46068381 -12.66060698 22.02613714 -15 24 C-15.66 24 -16.32 24 -17 24 C-15.29522644 18.97593204 -12.47985269 14.74127806 -9.625 10.3125 C-9.14289062 9.54099609 -8.66078125 8.76949219 -8.1640625 7.97460938 C-7.4525 6.86762695 -7.4525 6.86762695 -6.7265625 5.73828125 C-6.29939941 5.06837158 -5.87223633 4.39846191 -5.43212891 3.70825195 C-3.77732035 1.73438638 -2.41594906 0.86999515 0 0 Z " fill="#102643" transform="translate(37,240)"/>
<path d="M0 0 C0.33 0 0.66 0 1 0 C1.66 7.92 2.32 15.84 3 24 C-0.47820901 22.840597 -1.19116092 22.11522285 -3 19 C-3.99140613 12.10875545 -3.32512817 6.09606831 0 0 Z " fill="#E9EDED" transform="translate(40,178)"/>
<path d="M0 0 C-2.83662344 1.48646858 -5.67330827 2.61481663 -8.6875 3.6875 C-14.24560899 5.85953962 -18.50383 9.13372821 -23 13 C-25 10 -25 10 -25 8 C-21.535 7.505 -21.535 7.505 -18 7 C-18 6.34 -18 5.68 -18 5 C-13.62819737 -1.80058186 -7.42274712 -0.48905362 0 0 Z " fill="#194263" transform="translate(188,46)"/>
<path d="M0 0 C1.48831242 0.00667405 2.97660807 0.01863442 4.46484375 0.03515625 C5.22345703 0.03966797 5.98207031 0.04417969 6.76367188 0.04882812 C8.64326246 0.06064945 10.52281274 0.07858547 12.40234375 0.09765625 C10.96405829 4.00435054 9.51663587 6.29479334 6.40234375 9.09765625 C6.40234375 6.78765625 6.40234375 4.47765625 6.40234375 2.09765625 C2.44234375 3.08765625 -1.51765625 4.07765625 -5.59765625 5.09765625 C-4.3527806 0.11815365 -4.3527806 0.11815365 0 0 Z " fill="#0E223E" transform="translate(109.59765625,218.90234375)"/>
<path d="M0 0 C0 3.10551666 -0.5393715 4.35261084 -2 7 C-2.66 7 -3.32 7 -4 7 C-4 9.64 -4 12.28 -4 15 C-4.66 15 -5.32 15 -6 15 C-6.33 14.34 -6.66 13.68 -7 13 C-9.15294651 18.28830549 -11.27933894 23.55123997 -13 29 C-13.66 29 -14.32 29 -15 29 C-13.29193215 17.8026663 -7.77212465 8.15125269 0 0 Z " fill="#1C486A" transform="translate(143,32)"/>
<path d="M0 0 C0 0.66 0 1.32 0 2 C-1.423125 2.37125 -1.423125 2.37125 -2.875 2.75 C-6.08693191 3.6857077 -6.08693191 3.6857077 -7.375 6.125 C-7.58125 6.74375 -7.7875 7.3625 -8 8 C-12.54005935 8.25222552 -12.54005935 8.25222552 -14.9375 6.9375 C-17.85198018 5.61273628 -19.94912242 6.30661873 -23 7 C-20.5474195 4.5474195 -18.53774752 4.01296965 -15.25 2.9375 C-14.22390625 2.59589844 -13.1978125 2.25429687 -12.140625 1.90234375 C-8.06694727 0.73192142 -4.2413377 0 0 0 Z " fill="#285D88" transform="translate(193,6)"/>
<path d="M0 0 C6.6 0 13.2 0 20 0 C20.33 1.32 20.66 2.64 21 4 C16.05 4 11.1 4 6 4 C6 3.67 6 3.34 6 3 C4.02 2.34 2.04 1.68 0 1 C0 0.67 0 0.34 0 0 Z " fill="#DFE5EB" transform="translate(170,295)"/>
<path d="M0 0 C0.33 0 0.66 0 1 0 C0.41509121 6.14154225 -0.54066252 12.00679849 -2 18 C-3.65 17.67 -5.3 17.34 -7 17 C-6.88658509 14.51979503 -6.75985314 12.04155031 -6.625 9.5625 C-6.5940625 8.85544922 -6.563125 8.14839844 -6.53125 7.41992188 C-6.42719371 5.60760812 -6.22080108 3.80182012 -6 2 C-5.34 1.67 -4.68 1.34 -4 1 C-3.67 3.31 -3.34 5.62 -3 8 C-2.34 8 -1.68 8 -1 8 C-1.020625 7.05125 -1.04125 6.1025 -1.0625 5.125 C-1 2 -1 2 0 0 Z " fill="#0A2D50" transform="translate(145,277)"/>
<path d="M0 0 C-0.33 2.64 -0.66 5.28 -1 8 C-1.33 7.34 -1.66 6.68 -2 6 C-2.99 6.33 -3.98 6.66 -5 7 C-8.87778176 7 -10.54471691 6.46849531 -14 5 C-15.32927265 4.65082512 -16.6621289 4.31462647 -18 4 C-15.75194998 3.32678716 -13.50147776 2.66165877 -11.25 2 C-9.99703125 1.62875 -8.7440625 1.2575 -7.453125 0.875 C-4 0 -4 0 0 0 Z " fill="#2D5D83" transform="translate(281,63)"/>
<path d="M0 0 C0.66 0.66 1.32 1.32 2 2 C0.60079397 5.28385089 -0.97511543 7.03439449 -3.75 9.25 C-7.87928787 12.72372575 -10.95839493 16.56432593 -14 21 C-14.66 20.01 -15.32 19.02 -16 18 C-10.95630444 11.67536589 -5.89401276 5.55288018 0 0 Z " fill="#153858" transform="translate(122,28)"/>
<path d="M0 0 C2.31 0.66 4.62 1.32 7 2 C7 2.66 7 3.32 7 4 C7.99 4 8.98 4 10 4 C10.8353125 4.99 10.8353125 4.99 11.6875 6 C15.11089686 8.96077566 17.56937992 8.29537467 22 8 C22 8.99 22 9.98 22 11 C21.34 11 20.68 11 20 11 C20.66 12.32 21.32 13.64 22 15 C18.09274553 15 17.03023335 13.31555117 14.25 10.79296875 C10.58735093 7.87429527 6.48245476 5.75117781 2.37890625 3.515625 C1.59386719 3.01546875 0.80882812 2.5153125 0 2 C0 1.34 0 0.68 0 0 Z " fill="#143D5F" transform="translate(230,165)"/>
<path d="M0 0 C0.66 0 1.32 0 2 0 C2.33 0.99 2.66 1.98 3 3 C7.61507774 4.04214691 7.61507774 4.04214691 12 3 C11.67 4.32 11.34 5.64 11 7 C5.39 7 -0.22 7 -6 7 C-1.5078125 1.53125 -1.5078125 1.53125 0 0 Z " fill="#1C3752" transform="translate(120,202)"/>
<path d="M0 0 C0.66 0 1.32 0 2 0 C1.67 1.65 1.34 3.3 1 5 C1.99 4.67 2.98 4.34 4 4 C4.33 3.34 4.66 2.68 5 2 C6.32 2.33 7.64 2.66 9 3 C6.14723863 5.93200474 3.34920216 8.64315404 0 11 C-1.32 10.34 -2.64 9.68 -4 9 C-2.94124926 5.59687262 -1.99097846 2.98646769 0 0 Z " fill="#1F4E73" transform="translate(191,133)"/>
<path d="M0 0 C5.28 0 10.56 0 16 0 C13.81147059 3.64754902 12.32724056 5.9477248 9.4375 8.8125 C8.83808594 9.41707031 8.23867188 10.02164063 7.62109375 10.64453125 C6 12 6 12 4 12 C5.44253657 8.63408134 7.33264727 6.48952921 10 4 C6.99382731 0.99382731 4.17618402 1.40414684 0 1 C0 0.67 0 0.34 0 0 Z " fill="#0C3C65" transform="translate(308,24)"/>
<path d="M0 0 C0.66 0.99 1.32 1.98 2 3 C-1.44069624 5.29379749 -2.72290301 6 -7 6 C-7.268125 6.639375 -7.53625 7.27875 -7.8125 7.9375 C-9 10 -9 10 -12 11 C-13.68538601 12.99665314 -13.68538601 12.99665314 -15 15 C-15.99 14.67 -16.98 14.34 -18 14 C-12.71528798 8.38499347 -6.7281603 3.78459017 0 0 Z " fill="#245379" transform="translate(164,15)"/>
<path d="M0 0 C0.33 0 0.66 0 1 0 C1.0292483 3.20831391 1.04688189 6.41659307 1.0625 9.625 C1.07087891 10.52863281 1.07925781 11.43226563 1.08789062 12.36328125 C1.10491895 17.02904289 0.96829423 21.41013285 0 26 C-2 24 -2 24 -2.15112305 21.78515625 C-2.10511963 20.88667969 -2.05911621 19.98820312 -2.01171875 19.0625 C-1.96466797 18.08539063 -1.91761719 17.10828125 -1.86914062 16.1015625 C-1.80919922 15.07804688 -1.74925781 14.05453125 -1.6875 13 C-1.63916016 11.97648438 -1.59082031 10.95296875 -1.54101562 9.8984375 C-1.14447947 2.28895895 -1.14447947 2.28895895 0 0 Z " fill="#2B5575" transform="translate(295,201)"/>
<path d="M0 0 C0.33 0 0.66 0 1 0 C1 7.26 1 14.52 1 22 C0.34 22 -0.32 22 -1 22 C-1.74507544 15.62694402 -2.10349817 9.41688675 -2 3 C-1.34 3 -0.68 3 0 3 C0 2.01 0 1.02 0 0 Z " fill="#083761" transform="translate(130,58)"/>
<path d="M0 0 C0.99 0.33 1.98 0.66 3 1 C3 3.31 3 5.62 3 8 C1.02 8.99 1.02 8.99 -1 10 C-2.32 8.68 -3.64 7.36 -5 6 C-2.25 1.125 -2.25 1.125 0 0 Z " fill="#0C385F" transform="translate(256,270)"/>
<path d="M0 0 C0.66 0.33 1.32 0.66 2 1 C2 2.32 2 3.64 2 5 C1.01 5.66 0.02 6.32 -1 7 C-3.01136276 10.86800531 -4.11852173 14.04426462 -4.5625 18.375 C-4.706875 19.57125 -4.85125 20.7675 -5 22 C-5.66 22.33 -6.32 22.66 -7 23 C-8.32815433 18.58631639 -7.61100027 16.21766439 -5.75 12.0625 C-5.28722656 11.01707031 -4.82445313 9.97164062 -4.34765625 8.89453125 C-2.95167711 5.89621084 -1.54366679 2.92484233 0 0 Z " fill="#1A3550" transform="translate(104,49)"/>
<path d="M0 0 C0.9075 0.226875 1.815 0.45375 2.75 0.6875 C3.08 2.0075 3.41 3.3275 3.75 4.6875 C-2 7.6875 -2 7.6875 -4.25 7.6875 C-4.37375 7.048125 -4.4975 6.40875 -4.625 5.75 C-4.934375 4.7290625 -4.934375 4.7290625 -5.25 3.6875 C-5.91 3.3575 -6.57 3.0275 -7.25 2.6875 C-4.61280971 0.1517401 -3.74095095 -0.35970682 0 0 Z " fill="#133758" transform="translate(247.25,278.3125)"/>
<path d="M0 0 C0.33 0 0.66 0 1 0 C2.70943732 9.39344269 1.45940673 16.51528809 -3 25 C-3.66 25.33 -4.32 25.66 -5 26 C-5.66 25.34 -6.32 24.68 -7 24 C-5.625 22 -5.625 22 -4 20 C-3.34 20 -2.68 20 -2 20 C-1.34 13.4 -0.68 6.8 0 0 Z " fill="#0F3658" transform="translate(292,219)"/>
<path d="M0 0 C0.66 0.66 1.32 1.32 2 2 C1.76774721 6.37651344 0.11067093 8.36291739 -3 11.3125 C-3.721875 12.00988281 -4.44375 12.70726562 -5.1875 13.42578125 C-7 15 -7 15 -8 15 C-8 13.35 -8 11.7 -8 10 C-6.35 9.67 -4.7 9.34 -3 9 C-2.87625 8.071875 -2.7525 7.14375 -2.625 6.1875 C-2 3 -2 3 0 0 Z " fill="#14253E" transform="translate(63,190)"/>
<path d="M0 0 C0.66 0 1.32 0 2 0 C1.34 1.98 0.68 3.96 0 6 C0.99 5.67 1.98 5.34 3 5 C3.33 6.65 3.66 8.3 4 10 C4.99 10.33 5.98 10.66 7 11 C6.01 11.495 6.01 11.495 5 12 C2.6171875 11.00390625 2.6171875 11.00390625 -0.125 9.5625 C-1.03507813 9.08941406 -1.94515625 8.61632812 -2.8828125 8.12890625 C-3.58148438 7.75636719 -4.28015625 7.38382813 -5 7 C-1.125 1.125 -1.125 1.125 0 0 Z " fill="#1E3F5D" transform="translate(222,153)"/>
<path d="M0 0 C0.66 0.99 1.32 1.98 2 3 C-1.49359465 6.59634744 -5.11098131 9.83451967 -9 13 C-9.33 11.35 -9.66 9.7 -10 8 C-9.443125 7.773125 -8.88625 7.54625 -8.3125 7.3125 C-5.36305245 5.63848923 -3.3247731 3.45043651 -1 1 C-0.67 0.67 -0.34 0.34 0 0 Z " fill="#295476" transform="translate(240,117)"/>
<path d="M0 0 C1.09651823 3.41139003 0.94215473 6.20655581 0.5625 9.75 C0.46066406 10.73484375 0.35882813 11.7196875 0.25390625 12.734375 C0.12822266 13.85585938 0.12822266 13.85585938 0 15 C-1.65 15 -3.3 15 -5 15 C-4.54901762 13.06077578 -4.08894441 11.12366406 -3.625 9.1875 C-3.24214844 7.56908203 -3.24214844 7.56908203 -2.8515625 5.91796875 C-2 3 -2 3 0 0 Z " fill="#18314E" transform="translate(113,279)"/>
<path d="M0 0 C0.33 0 0.66 0 1 0 C1.89604368 6.04829486 2.11269443 11.8894576 2 18 C2.66 18 3.32 18 4 18 C4 19.65 4 21.3 4 23 C3.34 23 2.68 23 2 23 C1.67 23.66 1.34 24.32 1 25 C-0.10941367 19.67132017 -0.11548069 14.53718145 -0.0625 9.125 C-0.05798828 8.24585937 -0.05347656 7.36671875 -0.04882812 6.4609375 C-0.03712337 4.30726197 -0.01919069 2.15362183 0 0 Z " fill="#1F4567" transform="translate(127,62)"/>
<path d="M0 0 C1.32 0 2.64 0 4 0 C2.68130867 4.65339246 0.82545209 8.00692623 -2.0625 11.875 C-2.77535156 12.84179688 -3.48820312 13.80859375 -4.22265625 14.8046875 C-4.80917969 15.52914063 -5.39570313 16.25359375 -6 17 C-6.33 17 -6.66 17 -7 17 C-7 15.02 -7 13.04 -7 11 C-6.34 11 -5.68 11 -5 11 C-4.67 10.34 -4.34 9.68 -4 9 C-3.505 8.5875 -3.01 8.175 -2.5 7.75 C-0.42853955 5.33329614 -0.34503461 3.10531146 0 0 Z " fill="#173959" transform="translate(283,246)"/>
<path d="M0 0 C0.66 0 1.32 0 2 0 C2.3125 2.8125 2.3125 2.8125 2 6 C-0.38892501 7.88599343 -1.91851558 9 -5 9 C-5.33 10.32 -5.66 11.64 -6 13 C-6.66 13 -7.32 13 -8 13 C-7.38821244 9.34603593 -5.8335544 7.13957441 -3.5625 4.25 C-2.94503906 3.45078125 -2.32757813 2.6515625 -1.69140625 1.828125 C-1.13324219 1.22484375 -0.57507813 0.6215625 0 0 Z " fill="#133C5F" transform="translate(176,168)"/>
<path d="M0 0 C3.0831351 1.19899698 6.06279492 2.47700477 9 4 C7.56684975 7.61773603 5.95412036 8.969107 2.5625 10.8125 C1.78003906 11.25207031 0.99757812 11.69164062 0.19140625 12.14453125 C-2 13 -2 13 -5 12 C-4.34 12 -3.68 12 -3 12 C-3 11.34 -3 10.68 -3 10 C2.75 7 2.75 7 5 7 C3.70700306 4.11562221 2.34058637 2.12780579 0 0 Z " fill="#101F35" transform="translate(148,125)"/>
<path d="M0 0 C8.25 0 16.5 0 25 0 C25.33 0.99 25.66 1.98 26 3 C24.77023437 2.87431641 24.77023437 2.87431641 23.515625 2.74609375 C22.43796875 2.64425781 21.3603125 2.54242188 20.25 2.4375 C19.18265625 2.33308594 18.1153125 2.22867188 17.015625 2.12109375 C14.32893053 2.01320835 12.5481361 2.31705361 10 3 C9.34 2.67 8.68 2.34 8 2 C5.6670134 1.95977609 3.33293334 1.95679753 1 2 C0.67 1.34 0.34 0.68 0 0 Z " fill="#033362" transform="translate(276,38)"/>
<path d="M0 0 C0.33 0 0.66 0 1 0 C1.29296875 6.0546875 1.29296875 6.0546875 1 8 C0.01 8.66 -0.98 9.32 -2 10 C-3.19232613 12.05003955 -3.19232613 12.05003955 -4 14 C-5.125 12.3125 -5.125 12.3125 -6 10 C-5.125 7.25 -5.125 7.25 -4 5 C-3.34 5 -2.68 5 -2 5 C-1.855625 4.360625 -1.71125 3.72125 -1.5625 3.0625 C-1 1 -1 1 0 0 Z M-8 12 C-7.01 12.495 -7.01 12.495 -6 13 C-6.99 13.495 -6.99 13.495 -8 14 C-8 13.34 -8 12.68 -8 12 Z " fill="#F7FBFA" transform="translate(131,40)"/>
<path d="M0 0 C0.99 0.33 1.98 0.66 3 1 C2.525625 1.845625 2.05125 2.69125 1.5625 3.5625 C-0.05721513 7.12587329 -0.61256143 10.12561425 -1 14 C-2.65 14 -4.3 14 -6 14 C-4.02 9.38 -2.04 4.76 0 0 Z " fill="#122440" transform="translate(10,280)"/>
<path d="M0 0 C1.93742341 -0.02703381 3.87495479 -0.04641125 5.8125 -0.0625 C6.89144531 -0.07410156 7.97039062 -0.08570313 9.08203125 -0.09765625 C12 0 12 0 15 1 C14.67 1.99 14.34 2.98 14 4 C9.71 4 5.42 4 1 4 C0.67 2.68 0.34 1.36 0 0 Z " fill="#0A2749" transform="translate(77,264)"/>
<path d="M0 0 C0 3.76603821 -1.07407243 4.77142649 -3.375 7.6875 C-4.31472656 8.89986328 -4.31472656 8.89986328 -5.2734375 10.13671875 C-6.12808594 11.05904297 -6.12808594 11.05904297 -7 12 C-7.66 12 -8.32 12 -9 12 C-9.2475 12.5775 -9.495 13.155 -9.75 13.75 C-11.16683317 16.3002997 -12.87627537 18.01785701 -15 20 C-15.66 19.67 -16.32 19.34 -17 19 C-16.35933594 18.29875 -15.71867188 17.5975 -15.05859375 16.875 C-9.97762276 11.3018336 -4.93526783 5.70333931 0 0 Z " fill="#E2F0F5" transform="translate(232,129)"/>
<path d="M0 0 C0.33 0.66 0.66 1.32 1 2 C-0.00161449 4.59535989 -1.0623883 7.05454353 -2.25 9.5625 C-2.56324219 10.26052734 -2.87648438 10.95855469 -3.19921875 11.67773438 C-4.04824808 13.49381164 -5.0178389 15.25233098 -6 17 C-6.99 17.33 -7.98 17.66 -9 18 C-9 17.34 -9 16.68 -9 16 C-8.34 16 -7.68 16 -7 16 C-6.87625 15.13375 -6.7525 14.2675 -6.625 13.375 C-6.01941879 10.10486147 -5.11693965 7.12743101 -4 4 C-3.34 4 -2.68 4 -2 4 C-1.34 2.68 -0.68 1.36 0 0 Z " fill="#0D213B" transform="translate(47,274)"/>
<path d="M0 0 C8.91 0.66 17.82 1.32 27 2 C27 2.33 27 2.66 27 3 C8.65957447 4.57446809 8.65957447 4.57446809 0 2 C0 1.34 0 0.68 0 0 Z " fill="#223145" transform="translate(164,253)"/>
<path d="M0 0 C0.66 0 1.32 0 2 0 C2.05404449 2.75026417 2.09369306 5.49946203 2.125 8.25 C2.15013672 9.41595703 2.15013672 9.41595703 2.17578125 10.60546875 C2.18222656 11.35957031 2.18867188 12.11367187 2.1953125 12.890625 C2.20578613 13.58188477 2.21625977 14.27314453 2.22705078 14.98535156 C1.96176205 17.33928987 1.16048907 18.95207812 0 21 C-0.39271781 17.87695835 -0.76113726 14.75152428 -1.125 11.625 C-1.23714844 10.73554688 -1.34929687 9.84609375 -1.46484375 8.9296875 C-1.56152344 8.07890625 -1.65820312 7.228125 -1.7578125 6.3515625 C-1.8520752 5.56604004 -1.94633789 4.78051758 -2.04345703 3.97119141 C-2 2 -2 2 0 0 Z " fill="#031533" transform="translate(233,206)"/>
<path d="M0 0 C4.75 0.75 4.75 0.75 7 3 C5.66666667 3 4.33333333 3 3 3 C3 4.65 3 6.3 3 8 C3.66 8 4.32 8 5 8 C4.67 8.66 4.34 9.32 4 10 C1 8.25 1 8.25 -2 6 C-2 4.68 -2 3.36 -2 2 C-1.34 2 -0.68 2 0 2 C0 1.34 0 0.68 0 0 Z " fill="#E1EAED" transform="translate(151,119)"/>
<path d="M0 0 C-1.41963409 5.67853635 -4.39363961 9.53174216 -8 14 C-8 11.31957435 -7.75086404 9.0584006 -7.25 6.4375 C-7.11078125 5.65246094 -6.9715625 4.86742187 -6.828125 4.05859375 C-6 2 -6 2 -4.046875 0.72265625 C-2 0 -2 0 0 0 Z " fill="#0A1C36" transform="translate(257,251)"/>
<path d="M0 0 C0.33 0 0.66 0 1 0 C1 1.65 1 3.3 1 5 C1.66 5 2.32 5 3 5 C1.98408579 10.46864457 0.92908943 15.76390013 -1 21 C-2.38847702 17.14311938 -1.64301402 13.9866869 -1 10 C-0.63536124 6.66963264 -0.31541632 3.33535983 0 0 Z " fill="#0C2844" transform="translate(148,255)"/>
<path d="M0 0 C0.66 0.33 1.32 0.66 2 1 C1.67 3.64 1.34 6.28 1 9 C-0.32 9 -1.64 9 -3 9 C-4.7511573 10.4166747 -4.7511573 10.4166747 -6 12 C-5.43958106 7.23643901 -3.41302403 3.41302403 0 0 Z " fill="#153959" transform="translate(154,198)"/>
<path d="M0 0 C2.31 0 4.62 0 7 0 C7.309375 1.051875 7.309375 1.051875 7.625 2.125 C9.45781577 5.95725116 11.90251519 8.10452507 15 11 C14.67 11.66 14.34 12.32 14 13 C12.41540185 11.58474822 10.83237609 10.1677358 9.25 8.75 C8.36828125 7.96109375 7.4865625 7.1721875 6.578125 6.359375 C4.32133835 4.29407328 2.14260074 2.18264936 0 0 Z " fill="#071933" transform="translate(213,190)"/>
<path d="M0 0 C3.3 0 6.6 0 10 0 C9.67 1.32 9.34 2.64 9 4 C5.7 4 2.4 4 -1 4 C-0.67 2.68 -0.34 1.36 0 0 Z " fill="#031D3E" transform="translate(92,246)"/>
<path d="M0 0 C0.66 0.33 1.32 0.66 2 1 C2.3152595 6.98993047 1.68219822 10.63560356 -1 16 C-1.66 16 -2.32 16 -3 16 C-3 14.02 -3 12.04 -3 10 C-2.34 10 -1.68 10 -1 10 C-0.67 6.7 -0.34 3.4 0 0 Z " fill="#0D2E4D" transform="translate(155,237)"/>
<path d="M0 0 C0.33 0.66 0.66 1.32 1 2 C-0.97583004 7.23013834 -3.66637965 9.72570907 -8 13 C-8.33 12.01 -8.66 11.02 -9 10 C-6.03 6.7 -3.06 3.4 0 0 Z " fill="#1E496C" transform="translate(188,154)"/>
<path d="M0 0 C0.66 0.33 1.32 0.66 2 1 C-2.29 4.63 -6.58 8.26 -11 12 C-11.99 11.01 -12.98 10.02 -14 9 C-13.24074219 8.51789063 -12.48148438 8.03578125 -11.69921875 7.5390625 C-10.70535156 6.90742188 -9.71148437 6.27578125 -8.6875 5.625 C-7.70136719 4.99851563 -6.71523437 4.37203125 -5.69921875 3.7265625 C-3.78712071 2.50348387 -1.8885966 1.2590644 0 0 Z " fill="#CDE8F1" transform="translate(186,138)"/>
<path d="M0 0 C0.99 0 1.98 0 3 0 C2.55443866 5.04969516 0.44186399 7.47618687 -3 11 C-3.99 11 -4.98 11 -6 11 C-4.25 6.125 -4.25 6.125 -2 5 C-1.6278958 3.67696283 -1.29369827 2.34262065 -1 1 C-0.67 0.67 -0.34 0.34 0 0 Z " fill="#1E4D71" transform="translate(216,141)"/>
<path d="M0 0 C0.66 0.33 1.32 0.66 2 1 C-2.62 5.62 -7.24 10.24 -12 15 C-12.99 14.34 -13.98 13.68 -15 13 C-14.08476562 12.22914063 -13.16953125 11.45828125 -12.2265625 10.6640625 C-11.02600156 9.6510892 -9.82548292 8.63806576 -8.625 7.625 C-7.72007812 6.86316406 -7.72007812 6.86316406 -6.796875 6.0859375 C-6.21679688 5.59609375 -5.63671875 5.10625 -5.0390625 4.6015625 C-4.50490723 4.15119629 -3.97075195 3.70083008 -3.42041016 3.23681641 C-2.23658322 2.20600388 -1.10995961 1.10995961 0 0 Z " fill="#B3DBEF" transform="translate(220,118)"/>
<path d="M0 0 C2.475 0.99 2.475 0.99 5 2 C4.38125 2.4125 3.7625 2.825 3.125 3.25 C0.93231719 5.05573879 0.07211583 6.4090534 -1 9 C-1.99 8.67 -2.98 8.34 -4 8 C-3.50168276 4.31245243 -2.89932357 2.39509338 0 0 Z " fill="#0A1B35" transform="translate(212,166)"/>
<path d="M0 0 C0 0.99 0 1.98 0 3 C-2.28940956 3.38854209 -4.58164574 3.7604628 -6.875 4.125 C-8.78925781 4.43824219 -8.78925781 4.43824219 -10.7421875 4.7578125 C-12.35480469 4.87769531 -12.35480469 4.87769531 -14 5 C-14.66 4.34 -15.32 3.68 -16 3 C-5.62642369 -0.44419134 -5.62642369 -0.44419134 0 0 Z " fill="#265780" transform="translate(242,75)"/>
<path d="M0 0 C0.66 0 1.32 0 2 0 C0.33333333 3.33333333 -1.33333333 6.66666667 -3 10 C-3.66 10 -4.32 10 -5 10 C-5.33 10.66 -5.66 11.32 -6 12 C-6.79953138 8.71303767 -7.09658936 7.28976808 -6 4 C-2.9375 2.8125 -2.9375 2.8125 0 2 C0 1.34 0 0.68 0 0 Z " fill="#15446A" transform="translate(162,59)"/>
<path d="M0 0 C0.99 0.33 1.98 0.66 3 1 C2.01 4.96 1.02 8.92 0 13 C-1.32 13.33 -2.64 13.66 -4 14 C-3.21824485 9.15311808 -1.60155722 4.6233633 0 0 Z " fill="#193D5D" transform="translate(121,48)"/>
<path d="M0 0 C0.99 0 1.98 0 3 0 C1 4 -1 8 -3 12 C-3.66 11.01 -4.32 10.02 -5 9 C-4.125 5.3125 -4.125 5.3125 -3 2 C-2.01 2 -1.02 2 0 2 C0 1.34 0 0.68 0 0 Z " fill="#DCECF2" transform="translate(136,36)"/>
<path d="M0 0 C4.34263862 -0.16702456 7.20960634 -0.12999997 11 2 C9.58603098 2.50757862 8.16868271 3.00574925 6.75 3.5 C5.56664062 3.91765625 5.56664062 3.91765625 4.359375 4.34375 C2 5 2 5 -2 5 C-1.34 3.35 -0.68 1.7 0 0 Z " fill="#152B44" transform="translate(203,288)"/>
<path d="M0 0 C1.98 0.66 3.96 1.32 6 2 C3.48169253 5.12270126 2.2738451 5.94523098 -1.75 6.75 C-3.35875 6.87375 -3.35875 6.87375 -5 7 C-3.35 4.69 -1.7 2.38 0 0 Z " fill="#214E71" transform="translate(237,135)"/>
<path d="M0 0 C3.63 0 7.26 0 11 0 C13 4 13 4 12.3203125 6.140625 C11.92585938 6.83671875 11.53140625 7.5328125 11.125 8.25 C10.73570312 8.95640625 10.34640625 9.6628125 9.9453125 10.390625 C9.63335937 10.92171875 9.32140625 11.4528125 9 12 C8.34 12 7.68 12 7 12 C7.67170806 8.1936543 8.72746564 4.64793184 10 1 C6.7 1 3.4 1 0 1 C0 0.67 0 0.34 0 0 Z " fill="#29618A" transform="translate(319,6)"/>
<path d="M0 0 C-1.44253657 3.36591866 -3.33264727 5.51047079 -6 8 C-6.99 7.67 -7.98 7.34 -9 7 C-8.67 6.38125 -8.34 5.7625 -8 5.125 C-6.85806765 3.08981656 -6.85806765 3.08981656 -7 1 C-4.53721199 -0.231394 -2.7204945 -0.07159196 0 0 Z " fill="#0B2C48" transform="translate(98,205)"/>
<path d="M0 0 C0.66 0 1.32 0 2 0 C2 1.32 2 2.64 2 4 C2.66 4 3.32 4 4 4 C3.01 7.3 2.02 10.6 1 14 C0.01 13.67 -0.98 13.34 -2 13 C-1.67 12.67 -1.34 12.34 -1 12 C-0.76572222 9.98405418 -0.58663876 7.961526 -0.4375 5.9375 C-0.35371094 4.83277344 -0.26992188 3.72804687 -0.18359375 2.58984375 C-0.12300781 1.73519531 -0.06242187 0.88054687 0 0 Z " fill="#031B3D" transform="translate(59,185)"/>
<path d="M0 0 C0.99 0 1.98 0 3 0 C3.625 2.875 3.625 2.875 4 6 C3.34 6.66 2.68 7.32 2 8 C1.01 7.67 0.02 7.34 -1 7 C-1.625 4.625 -1.625 4.625 -2 2 C-1.34 1.34 -0.68 0.68 0 0 Z " fill="#081E3F" transform="translate(61,123)"/>
<path d="M0 0 C0.33 0 0.66 0 1 0 C1.33 1.98 1.66 3.96 2 6 C2.33 6 2.66 6 3 6 C3.125 11.75 3.125 11.75 2 14 C1.01 14 0.02 14 -1 14 C-0.67 9.38 -0.34 4.76 0 0 Z " fill="#062E53" transform="translate(272,221)"/>
<path d="M0 0 C0.66 0 1.32 0 2 0 C2 2.31 2 4.62 2 7 C2.66 7 3.32 7 4 7 C4.33 6.34 4.66 5.68 5 5 C5.33 6.32 5.66 7.64 6 9 C5.34 9 4.68 9 4 9 C3.34 10.32 2.68 11.64 2 13 C0.21590198 9.93753253 -0.22880021 7.77920727 -0.125 4.25 C-0.10695313 3.45078125 -0.08890625 2.6515625 -0.0703125 1.828125 C-0.04710937 1.22484375 -0.02390625 0.6215625 0 0 Z " fill="#104D7D" transform="translate(267,86)"/>
<path d="M0 0 C8.58 0 17.16 0 26 0 C25.34 1.32 24.68 2.64 24 4 C23.34 3.67 22.68 3.34 22 3 C22 2.34 22 1.68 22 1 C14.74 1 7.48 1 0 1 C0 0.67 0 0.34 0 0 Z " fill="#1E4C6E" transform="translate(308,5)"/>
<path d="M0 0 C2.4702708 2.4702708 2.76871663 3.53074952 3 7 C2.19845547 9.47656706 1.15158796 11.65076056 0 14 C-0.33 14 -0.66 14 -1 14 C-1.02685938 11.85423363 -1.04633088 9.70837355 -1.0625 7.5625 C-1.07410156 6.36753906 -1.08570313 5.17257813 -1.09765625 3.94140625 C-1 1 -1 1 0 0 Z " fill="#183E61" transform="translate(158,230)"/>
<path d="M0 0 C3.96 0 7.92 0 12 0 C10.35 1.65 8.7 3.3 7 5 C6.67 4.01 6.34 3.02 6 2 C3.36 2.66 0.72 3.32 -2 4 C-1.34 2.68 -0.68 1.36 0 0 Z " fill="#132F4C" transform="translate(141,181)"/>
<path d="M0 0 C0.33 0.66 0.66 1.32 1 2 C-0.98 4.97 -0.98 4.97 -3 8 C-5.97 7.505 -5.97 7.505 -9 7 C-6.24479785 4.04070881 -3.53372712 1.96318174 0 0 Z " fill="#20476A" transform="translate(130,156)"/>
<path d="M0 0 C-1.40844718 3.21524305 -3.10344786 5.32183868 -5.625 7.75 C-6.57246094 8.67039063 -6.57246094 8.67039063 -7.5390625 9.609375 C-8.02117187 10.06828125 -8.50328125 10.5271875 -9 11 C-9.66 10.34 -10.32 9.68 -11 9 C-9.73965413 7.49117739 -8.46636351 5.99315956 -7.1875 4.5 C-6.47980469 3.6646875 -5.77210938 2.829375 -5.04296875 1.96875 C-3 0 -3 0 0 0 Z " fill="#EAFCFE" transform="translate(207,132)"/>
<path d="M0 0 C0.66 0 1.32 0 2 0 C2 1.32 2 2.64 2 4 C7.94 3.67 13.88 3.34 20 3 C20 3.66 20 4.32 20 5 C13.07 5 6.14 5 -1 5 C-0.67 3.35 -0.34 1.7 0 0 Z " fill="#071933" transform="translate(64,290)"/>
<path d="M0 0 C0 3 0 3 -1 5 C-1 6.32 -1 7.64 -1 9 C-3.31 9 -5.62 9 -8 9 C-7.04270084 7.87411986 -6.08412105 6.7493285 -5.125 5.625 C-4.59132812 4.99851563 -4.05765625 4.37203125 -3.5078125 3.7265625 C-2.38567993 2.44163349 -1.20628025 1.20628025 0 0 Z " fill="#061831" transform="translate(228,237)"/>
<path d="M0 0 C0.66 0.33 1.32 0.66 2 1 C0.7260411 3.03833424 -0.61061923 5.03852126 -2 7 C-2.66 7 -3.32 7 -4 7 C-4.33 7.99 -4.66 8.98 -5 10 C-6.32 9.67 -7.64 9.34 -9 9 C-6.03 6.03 -3.06 3.06 0 0 Z " fill="#2C4C69" transform="translate(139,181)"/>
<path d="M0 0 C4 4 8 8 12 12 C11.67 12.66 11.34 13.32 11 14 C10.34 13.67 9.68 13.34 9 13 C9 12.34 9 11.68 9 11 C8.443125 10.814375 7.88625 10.62875 7.3125 10.4375 C3.96865193 8.35889174 1.95192172 5.39186398 0 2 C0 1.34 0 0.68 0 0 Z " fill="#0F2139" transform="translate(129,106)"/>
<path d="M0 0 C0.33 0.66 0.66 1.32 1 2 C-0.32 2.33 -1.64 2.66 -3 3 C-3 3.66 -3 4.32 -3 5 C-4.4117783 5.53394179 -5.82970244 6.05165104 -7.25 6.5625 C-8.03890625 6.85253906 -8.8278125 7.14257812 -9.640625 7.44140625 C-12.19103452 8.04522837 -13.55322229 7.8473932 -16 7 C-15.18015625 6.66226562 -14.3603125 6.32453125 -13.515625 5.9765625 C-12.43796875 5.53054688 -11.3603125 5.08453125 -10.25 4.625 C-8.64898437 3.96371094 -8.64898437 3.96371094 -7.015625 3.2890625 C-4.62444074 2.26692415 -2.30616817 1.19786405 0 0 Z " fill="#2F3A46" transform="translate(233,286)"/>
<path d="M0 0 C0.9075 0.53625 1.815 1.0725 2.75 1.625 C1.76 3.11 1.76 3.11 0.75 4.625 C-0.24 4.625 -1.23 4.625 -2.25 4.625 C-2.91 3.965 -3.57 3.305 -4.25 2.625 C-5.24 1.965 -6.23 1.305 -7.25 0.625 C-4.22502149 -1.58556122 -3.57040661 -1.51055664 0 0 Z " fill="#07294B" transform="translate(252.25,277.375)"/>
<path d="M0 0 C4.81033104 2.54664585 8.32442148 4.99027798 12 9 C6.81298543 8.68563548 3.4052641 5.69966733 0 2 C0 1.34 0 0.68 0 0 Z " fill="#275172" transform="translate(258,146)"/>
<path d="M0 0 C0.680625 0.4125 1.36125 0.825 2.0625 1.25 C2.0625 1.91 2.0625 2.57 2.0625 3.25 C1.0725 3.58 0.0825 3.91 -0.9375 4.25 C-1.9275 3.59 -2.9175 2.93 -3.9375 2.25 C-5.9175 3.57 -7.8975 4.89 -9.9375 6.25 C-9.9375 5.26 -9.9375 4.27 -9.9375 3.25 C-3.66057692 -0.93461538 -3.66057692 -0.93461538 0 0 Z " fill="#E3E9EC" transform="translate(138.9375,143.75)"/>
<path d="M0 0 C0.66 0.33 1.32 0.66 2 1 C0.48328036 5.55015893 -3.16891053 7.50057264 -7 10 C-7.33 9.01 -7.66 8.02 -8 7 C-2.25 2 -2.25 2 0 2 C0 1.34 0 0.68 0 0 Z " fill="#275375" transform="translate(208,125)"/>
<path d="M0 0 C0.66 0.33 1.32 0.66 2 1 C0.59148053 2.32123942 -0.82715741 3.63169769 -2.25 4.9375 C-3.03890625 5.66839844 -3.8278125 6.39929688 -4.640625 7.15234375 C-6.89044414 8.91420543 -8.21628554 9.59776603 -11 10 C-11 9.01 -11 8.02 -11 7 C-10.1646875 6.9071875 -10.1646875 6.9071875 -9.3125 6.8125 C-6.05522474 5.66805194 -4.3500902 3.47377916 -2 1 C-1.34 0.67 -0.68 0.34 0 0 Z " fill="#3A75A4" transform="translate(232,108)"/>
<path d="M0 0 C0.66 0.33 1.32 0.66 2 1 C1.27683594 1.81404297 1.27683594 1.81404297 0.5390625 2.64453125 C-0.09257813 3.35996094 -0.72421875 4.07539063 -1.375 4.8125 C-2.31472656 5.87404297 -2.31472656 5.87404297 -3.2734375 6.95703125 C-5.140599 9.08803819 -5.140599 9.08803819 -7 12 C-7.99 11.67 -8.98 11.34 -10 11 C-6.7 7.37 -3.4 3.74 0 0 Z " fill="#0A223D" transform="translate(53,219)"/>
<path d="M0 0 C0.99 0.33 1.98 0.66 3 1 C1.02 3.97 -0.96 6.94 -3 10 C-3.66 8.68 -4.32 7.36 -5 6 C-4.67 5.01 -4.34 4.02 -4 3 C-2.68 3 -1.36 3 0 3 C0 2.01 0 1.02 0 0 Z " fill="#173D5C" transform="translate(190,178)"/>
<path d="M0 0 C2.75 0.25 2.75 0.25 5 1 C5 1.99 5 2.98 5 4 C4.67 3.34 4.34 2.68 4 2 C1.69 3.32 -0.62 4.64 -3 6 C-3.33 5.34 -3.66 4.68 -4 4 C-2.3125 1.9375 -2.3125 1.9375 0 0 Z " fill="#164A73" transform="translate(247,109)"/>
<path d="M0 0 C0.66 0.33 1.32 0.66 2 1 C2 2.32 2 3.64 2 5 C2.99 4.67 3.98 4.34 5 4 C5 4.66 5 5.32 5 6 C4.34 6 3.68 6 3 6 C2.67 6.99 2.34 7.98 2 9 C1.01 8.67 0.02 8.34 -1 8 C-1.04241723 5.66705225 -1.04092937 3.33297433 -1 1 C-0.67 0.67 -0.34 0.34 0 0 Z " fill="#F6FAF9" transform="translate(59,285)"/>
<path d="M0 0 C0.66 0.99 1.32 1.98 2 3 C1.01 3.33 0.02 3.66 -1 4 C-1.28875 4.825 -1.5775 5.65 -1.875 6.5 C-2.24625 7.325 -2.6175 8.15 -3 9 C-5.625 9.8125 -5.625 9.8125 -8 10 C-7.59007812 9.52949219 -7.18015625 9.05898438 -6.7578125 8.57421875 C-6.21898437 7.95160156 -5.68015625 7.32898438 -5.125 6.6875 C-4.59132812 6.07261719 -4.05765625 5.45773437 -3.5078125 4.82421875 C-1.8359553 2.86501788 -1.8359553 2.86501788 0 0 Z " fill="#163755" transform="translate(255,267)"/>
<path d="M0 0 C0.33 0 0.66 0 1 0 C1.24991456 6.65050424 0.73955334 12.56986533 -1 19 C-1.33 19 -1.66 19 -2 19 C-2.02688151 17.35425434 -2.04634123 15.70838587 -2.0625 14.0625 C-2.07410156 13.14597656 -2.08570313 12.22945312 -2.09765625 11.28515625 C-2 9 -2 9 -1 8 C-0.76924918 6.65252916 -0.58846937 5.29622435 -0.4375 3.9375 C-0.293125 2.638125 -0.14875 1.33875 0 0 Z " fill="#E1F2F8" transform="translate(270,224)"/>
<path d="M0 0 C-0.66 1.32 -1.32 2.64 -2 4 C-2.66 4 -3.32 4 -4 4 C-4 4.66 -4 5.32 -4 6 C-3.34 6.33 -2.68 6.66 -2 7 C-4.31 7 -6.62 7 -9 7 C-3.65789474 0 -3.65789474 0 0 0 Z " fill="#103251" transform="translate(94,183)"/>
<path d="M0 0 C0.99 0.495 0.99 0.495 2 1 C2.62669199 3.16467461 3.15427374 5.35864524 3.625 7.5625 C3.88539062 8.76003906 4.14578125 9.95757812 4.4140625 11.19140625 C4.60742188 12.11824219 4.80078125 13.04507813 5 14 C4.34 14 3.68 14 3 14 C3 12.68 3 11.36 3 10 C2.34 10 1.68 10 1 10 C-0.1577506 6.52674819 -0.06866652 3.63932552 0 0 Z " fill="#223752" transform="translate(58,175)"/>
<path d="M0 0 C0.33 0.66 0.66 1.32 1 2 C1.66 2.33 2.32 2.66 3 3 C0.69 5.31 -1.62 7.62 -4 10 C-4.66 9.34 -5.32 8.68 -6 8 C-4.02 5.36 -2.04 2.72 0 0 Z " fill="#1B4367" transform="translate(167,179)"/>
<path d="M0 0 C3.63 0.33 7.26 0.66 11 1 C11 1.66 11 2.32 11 3 C6.71 3 2.42 3 -2 3 C-1.34 2.01 -0.68 1.02 0 0 Z " fill="#334E66" transform="translate(150,171)"/>
<path d="M0 0 C0.66 0.66 1.32 1.32 2 2 C-4.28571429 7.57142857 -4.28571429 7.57142857 -8 8 C-7.9375 6.25 -7.9375 6.25 -7 4 C-4.75835678 2.40498463 -2.46433357 1.25456982 0 0 Z " fill="#254E71" transform="translate(155,141)"/>
<path d="M0 0 C0.66 0 1.32 0 2 0 C1.49701212 4.40114397 -0.08772731 6.71195019 -3 10 C-3.33 9.34 -3.66 8.68 -4 8 C-1.48571429 1.48571429 -1.48571429 1.48571429 0 0 Z " fill="#306893" transform="translate(191,133)"/>
<path d="M0 0 C1.65 0.33 3.3 0.66 5 1 C5.33 1.99 5.66 2.98 6 4 C4.02 4.99 4.02 4.99 2 6 C1.01 5.34 0.02 4.68 -1 4 C-0.67 2.68 -0.34 1.36 0 0 Z " fill="#154F7B" transform="translate(221,84)"/>
<path d="M0 0 C0.66 1.32 1.32 2.64 2 4 C0.6875 7.4375 0.6875 7.4375 -1 11 C-1.69140522 13.77888613 -1.69140522 13.77888613 -2 16 C-2.66 16 -3.32 16 -4 16 C-2.68 10.72 -1.36 5.44 0 0 Z " fill="#CCDEE8" transform="translate(277,77)"/>
<path d="M0 0 C0.33 0 0.66 0 1 0 C1 4.29 1 8.58 1 13 C0.01 13.495 0.01 13.495 -1 14 C-1 12.35 -1 10.7 -1 9 C-1.66 9 -2.32 9 -3 9 C-3 8.34 -3 7.68 -3 7 C-2.34 6.67 -1.68 6.34 -1 6 C-0.34227572 2.97065509 -0.34227572 2.97065509 0 0 Z " fill="#021A3B" transform="translate(162,258)"/>
<path d="M0 0 C0.66 0.99 1.32 1.98 2 3 C0.35 5.64 -1.3 8.28 -3 11 C-3.66 10.67 -4.32 10.34 -5 10 C-4.1875 7.0625 -4.1875 7.0625 -3 4 C-2.01 3.67 -1.02 3.34 0 3 C0 2.01 0 1.02 0 0 Z " fill="#E5ECF0" transform="translate(23,253)"/>
<path d="M0 0 C1.32 0.33 2.64 0.66 4 1 C2.68 3.31 1.36 5.62 0 8 C-0.99 7.67 -1.98 7.34 -3 7 C-2.67 6.01 -2.34 5.02 -2 4 C-1.34 4 -0.68 4 0 4 C0 2.68 0 1.36 0 0 Z " fill="#163856" transform="translate(173,203)"/>
<path d="M0 0 C-4.29 1.65 -8.58 3.3 -13 5 C-13 4.34 -13 3.68 -13 3 C-13.66 2.67 -14.32 2.34 -15 2 C-13.06524329 1.46906676 -11.12706845 0.95057683 -9.1875 0.4375 C-8.10855469 0.14746094 -7.02960938 -0.14257812 -5.91796875 -0.44140625 C-3 -1 -3 -1 0 0 Z " fill="#435460" transform="translate(172,7)"/>
<path d="M0 0 C1 2 1 2 0.22265625 4.3828125 C-0.16019531 5.28773438 -0.54304688 6.19265625 -0.9375 7.125 C-1.31777344 8.03507812 -1.69804688 8.94515625 -2.08984375 9.8828125 C-2.39019531 10.58148438 -2.69054688 11.28015625 -3 12 C-3.66 12 -4.32 12 -5 12 C-4.54738642 10.56068883 -4.08767021 9.12361001 -3.625 7.6875 C-3.24214844 6.48673828 -3.24214844 6.48673828 -2.8515625 5.26171875 C-2 3 -2 3 0 0 Z " fill="#091D36" transform="translate(54,259)"/>
<path d="M0 0 C1 3 1 3 0.22265625 4.82421875 C-0.8515625 6.54947917 -1.92578125 8.27473958 -3 10 C-3.99 10 -4.98 10 -6 10 C-4.34832443 6.4213696 -2.21713508 3.25179812 0 0 Z " fill="#17324E" transform="translate(103,222)"/>
<path d="M0 0 C1.83832664 3.10217621 2.47446226 5.39408679 2 9 C1.01 9.66 0.02 10.32 -1 11 C-1.0270043 9.54176788 -1.04639787 8.08339325 -1.0625 6.625 C-1.07410156 5.81289062 -1.08570313 5.00078125 -1.09765625 4.1640625 C-1 2 -1 2 0 0 Z " fill="#1B2339" transform="translate(261,210)"/>
<path d="M0 0 C2.31 0.66 4.62 1.32 7 2 C7 2.66 7 3.32 7 4 C7.99 4 8.98 4 10 4 C10.33 5.32 10.66 6.64 11 8 C7.37 6.02 3.74 4.04 0 2 C0 1.34 0 0.68 0 0 Z " fill="#1D4463" transform="translate(230,165)"/>
<path d="M0 0 C0.33 0.66 0.66 1.32 1 2 C-2.17320782 5.53586014 -4.16743695 7.58578031 -9 8 C-6.14723863 5.06799526 -3.34920216 2.35684596 0 0 Z " fill="#1F4F73" transform="translate(187,139)"/>
<path d="M0 0 C0.99 0 1.98 0 3 0 C3 1.65 3 3.3 3 5 C2.34 4.34 1.68 3.68 1 3 C1 3.99 1 4.98 1 6 C-0.98 6.99 -0.98 6.99 -3 8 C-2.45276317 4.62537285 -1.9451 2.91765 0 0 Z " fill="#071B3A" transform="translate(16,270)"/>
<path d="M0 0 C0.99 0.33 1.98 0.66 3 1 C0.25 7.875 0.25 7.875 -2 9 C-1.125 1.125 -1.125 1.125 0 0 Z " fill="#102D4A" transform="translate(120,260)"/>
<path d="M0 0 C0.66 0.33 1.32 0.66 2 1 C0.95125002 3.62187494 0.35068687 4.79371361 -2.125 6.25 C-2.74375 6.4975 -3.3625 6.745 -4 7 C-4.33 5.68 -4.66 4.36 -5 3 C-3.68 3 -2.36 3 -1 3 C-0.67 2.01 -0.34 1.02 0 0 Z " fill="#192B42" transform="translate(50,206)"/>
<path d="M0 0 C0.66 1.32 1.32 2.64 2 4 C0.03533587 5.06775224 -1.96855359 6.06553465 -4 7 C-4.66 6.67 -5.32 6.34 -6 6 C-4.02 4.02 -2.04 2.04 0 0 Z " fill="#1E3A58" transform="translate(65,206)"/>
<path d="M0 0 C5.94 3.465 5.94 3.465 12 7 C11.34 7.66 10.68 8.32 10 9 C7.5 7.625 7.5 7.625 5 6 C5 5.34 5 4.68 5 4 C2.525 3.01 2.525 3.01 0 2 C0 1.34 0 0.68 0 0 Z " fill="#17273C" transform="translate(227,173)"/>
<path d="M0 0 C0 3.15987325 -0.38214873 4.36034793 -2 7 C-2.99 7.66 -3.98 8.32 -5 9 C-5 5 -5 5 -2.5 2.25 C-1.675 1.5075 -0.85 0.765 0 0 Z " fill="#1D476A" transform="translate(229,145)"/>
<path d="M0 0 C0 3.51716303 -0.82445585 4.37121748 -3 7 C-4.32 6.67 -5.64 6.34 -7 6 C-7 5.34 -7 4.68 -7 4 C-4.69 2.68 -2.38 1.36 0 0 Z " fill="#285377" transform="translate(181,126)"/>
<path d="M0 0 C0 3 0 3 -1.2421875 4.60546875 C-1.78101563 5.12753906 -2.31984375 5.64960937 -2.875 6.1875 C-3.40867187 6.71730469 -3.94234375 7.24710938 -4.4921875 7.79296875 C-6 9 -6 9 -8 9 C-6.4169423 4.7257442 -3.49431596 2.73468206 0 0 Z " fill="#0A2E4D" transform="translate(320,27)"/>
<path d="M0 0 C0.99 0.66 1.98 1.32 3 2 C2.690625 2.598125 2.38125 3.19625 2.0625 3.8125 C0.89790296 6.08956772 0.89790296 6.08956772 0 9 C-0.99 9 -1.98 9 -3 9 C-2.01 6.03 -1.02 3.06 0 0 Z " fill="#DCE5EB" transform="translate(92,273)"/>
<path d="M0 0 C3.96 1.98 3.96 1.98 8 4 C8 4.99 8 5.98 8 7 C4.66272214 5.82744291 2.22562513 4.81131596 0 2 C0 1.34 0 0.68 0 0 Z " fill="#E0EEF3" transform="translate(224,163)"/>
<path d="M0 0 C0.66 0.99 1.32 1.98 2 3 C0.35 4.98 -1.3 6.96 -3 9 C-3.75 7.3125 -3.75 7.3125 -4 5 C-2.0625 2.25 -2.0625 2.25 0 0 Z " fill="#28587C" transform="translate(202,138)"/>
<path d="M0 0 C1.80411967 2.75924185 2.0127245 3.88972103 1.625 7.25 C1.41875 8.1575 1.2125 9.065 1 10 C0.34 10 -0.32 10 -1 10 C-2.31223496 6.06329512 -1.24296256 3.87511856 0 0 Z " fill="#295375" transform="translate(263,118)"/>
<path d="M0 0 C0.66 0.99 1.32 1.98 2 3 C-0.25 4.625 -0.25 4.625 -3 6 C-5.3125 5.1875 -5.3125 5.1875 -7 4 C-4.69 2.68 -2.38 1.36 0 0 Z " fill="#2F5C80" transform="translate(189,121)"/>
<path d="M0 0 C0.99 0.33 1.98 0.66 3 1 C2.25 3.9375 2.25 3.9375 1 7 C-1.125 7.875 -1.125 7.875 -3 8 C-3 7.34 -3 6.68 -3 6 C-2.34 6 -1.68 6 -1 6 C-0.67 4.02 -0.34 2.04 0 0 Z " fill="#F6F9F7" transform="translate(75,110)"/>
<path d="M0 0 C0.66 0.99 1.32 1.98 2 3 C1.01 4.98 0.02 6.96 -1 9 C-1.66 8.67 -2.32 8.34 -3 8 C-3 6.35 -3 4.7 -3 3 C-2.34 3 -1.68 3 -1 3 C-0.67 2.01 -0.34 1.02 0 0 Z " fill="#173B5B" transform="translate(126,39)"/>
<path d="M0 0 C1.36125 0.12375 1.36125 0.12375 2.75 0.25 C0.68243723 3.0472908 -0.39440371 3.27692273 -3.9375 3.9375 C-5.030625 4.040625 -6.12375 4.14375 -7.25 4.25 C-4.83923194 1.28290085 -3.90322061 0.30024774 0 0 Z " fill="#0B1D35" transform="translate(219.25,284.75)"/>
<path d="M0 0 C0.93045933 2.55144824 1.08564091 3.74006478 0.22265625 6.359375 C-0.16019531 7.14828125 -0.54304688 7.9371875 -0.9375 8.75 C-1.50791016 9.94882812 -1.50791016 9.94882812 -2.08984375 11.171875 C-2.39019531 11.77515625 -2.69054687 12.3784375 -3 13 C-3.66 13 -4.32 13 -5 13 C-3.58192622 8.52761347 -1.88695626 4.28853694 0 0 Z " fill="#15283D" transform="translate(74,268)"/>
<path d="M0 0 C1 3 1 3 -0.25 6.625 C-2 10 -2 10 -5 11 C-3.77472971 6.94718288 -2.30119506 3.55639236 0 0 Z " fill="#233F59" transform="translate(132,234)"/>
<path d="M0 0 C1.65 0 3.3 0 5 0 C3.9024777 2.99324263 3.32317108 3.84610901 0.375 5.25 C-0.40875 5.4975 -1.1925 5.745 -2 6 C-1.34 4.02 -0.68 2.04 0 0 Z " fill="#153350" transform="translate(118,182)"/>
<path d="M0 0 C-5.75 5 -5.75 5 -8 5 C-6.19780722 -0.02039417 -5.34443412 -1.60333024 0 0 Z " fill="#244764" transform="translate(138,172)"/>
<path d="M0 0 C1.65 0 3.3 0 5 0 C5.33 0.99 5.66 1.98 6 3 C5.01 3.66 4.02 4.32 3 5 C2.01 4.67 1.02 4.34 0 4 C0 2.68 0 1.36 0 0 Z " fill="#11243D" transform="translate(125,144)"/>
<path d="M0 0 C0.99 0.33 1.98 0.66 3 1 C1.02 3.97 -0.96 6.94 -3 10 C-3.66 9.67 -4.32 9.34 -5 9 C-4.67 8.01 -4.34 7.02 -4 6 C-3.34 6 -2.68 6 -2 6 C-1.34 4.02 -0.68 2.04 0 0 Z " fill="#16344F" transform="translate(133,29)"/>
<path d="M0 0 C0.66 0 1.32 0 2 0 C2.33 1.98 2.66 3.96 3 6 C2.01 6.495 2.01 6.495 1 7 C1 6.01 1 5.02 1 4 C0.01 4 -0.98 4 -2 4 C-1.34 2.68 -0.68 1.36 0 0 Z " fill="#072244" transform="translate(40,234)"/>
<path d="M0 0 C0.66 0.33 1.32 0.66 2 1 C1.67 3.64 1.34 6.28 1 9 C0.34 9 -0.32 9 -1 9 C-1.625 5.625 -1.625 5.625 -2 2 C-1.34 1.34 -0.68 0.68 0 0 Z " fill="#072E52" transform="translate(154,198)"/>
<path d="M0 0 C1.65 0 3.3 0 5 0 C3.63016497 3.16115776 3.0109362 3.9927092 0 6 C0 4.02 0 2.04 0 0 Z " fill="#0D2947" transform="translate(133,198)"/>
<path d="M0 0 C0.99 0 1.98 0 3 0 C1.60667426 3.36720387 0.0210714 4.9859524 -3 7 C-3 5.68 -3 4.36 -3 3 C-2.34 3 -1.68 3 -1 3 C-0.67 2.01 -0.34 1.02 0 0 Z " fill="#26435C" transform="translate(164,166)"/>
<path d="M0 0 C0 0.99 0 1.98 0 3 C0.0309375 4.2684375 0.0309375 4.2684375 0.0625 5.5625 C0 8 0 8 -1 10 C-1.66 10 -2.32 10 -3 10 C-2.67 8.02 -2.34 6.04 -2 4 C-2.66 3.67 -3.32 3.34 -4 3 C-2.68 2.01 -1.36 1.02 0 0 Z " fill="#1E4E73" transform="translate(177,147)"/>
<path d="M0 0 C0 0.66 0 1.32 0 2 C-2.97 3.65 -5.94 5.3 -9 7 C-6.98222181 2.96444362 -4.85744506 0 0 0 Z " fill="#214C6B" transform="translate(171,147)"/>
<path d="M0 0 C0.33 0.99 0.66 1.98 1 3 C-0.32 3.99 -1.64 4.98 -3 6 C-4.32 5.34 -5.64 4.68 -7 4 C-4.69 2.68 -2.38 1.36 0 0 Z " fill="#244C6D" transform="translate(167,134)"/>
<path d="M0 0 C0.33 0 0.66 0 1 0 C2.28571429 7.42857143 2.28571429 7.42857143 1 11 C0.34 11 -0.32 11 -1 11 C-1.14285714 3.57142857 -1.14285714 3.57142857 0 0 Z " fill="#1A4B70" transform="translate(267,102)"/>
<path d="M0 0 C0.99 0 1.98 0 3 0 C3.33 0.99 3.66 1.98 4 3 C1.69 3.66 -0.62 4.32 -3 5 C-1.125 1.125 -1.125 1.125 0 0 Z " fill="#1E537C" transform="translate(224,98)"/>
<path d="M0 0 C-5.73166369 3.66189624 -5.73166369 3.66189624 -9 4 C-9.66 3.34 -10.32 2.68 -11 2 C-9.54494642 1.47007308 -8.08581873 0.9513211 -6.625 0.4375 C-5.81289062 0.14746094 -5.00078125 -0.14257812 -4.1640625 -0.44140625 C-2 -1 -2 -1 0 0 Z " fill="#C8D4DE" transform="translate(242,288)"/>
<path d="M0 0 C0.66 0 1.32 0 2 0 C2 4.29 2 8.58 2 13 C1.34 12.67 0.68 12.34 0 12 C-0.44921875 10.0390625 -0.44921875 10.0390625 -0.6875 7.625 C-0.77386719 6.83351563 -0.86023438 6.04203125 -0.94921875 5.2265625 C-1 3 -1 3 0 0 Z " fill="#09294A" transform="translate(114,275)"/>
<path d="M0 0 C1.60080151 4.00200378 0.29279692 7.04556236 -1 11 C-1.66 11 -2.32 11 -3 11 C-2.32829194 7.1936543 -1.27253436 3.64793184 0 0 Z " fill="#202F44" transform="translate(162,254)"/>
<path d="M0 0 C0.33 0.99 0.66 1.98 1 3 C-0.32 4.32 -1.64 5.64 -3 7 C-3.66 6.67 -4.32 6.34 -5 6 C-3.63016497 2.83884224 -3.0109362 2.0072908 0 0 Z " fill="#15304F" transform="translate(66,242)"/>
<path d="M0 0 C3.77528304 1.25842768 4.10667045 2.62493429 6 6 C6.66 6.66 7.32 7.32 8 8 C7.34 8.66 6.68 9.32 6 10 C4.99421411 8.71283353 3.99553202 7.42011342 3 6.125 C2.443125 5.40570313 1.88625 4.68640625 1.3125 3.9453125 C0 2 0 2 0 0 Z " fill="#204461" transform="translate(256,185)"/>
<path d="M0 0 C0 3 0 3 -2.5 5.6875 C-3.325 6.450625 -4.15 7.21375 -5 8 C-5 6.68 -5 5.36 -5 4 C-4.34 3.67 -3.68 3.34 -3 3 C-3 2.34 -3 1.68 -3 1 C-2.01 0.67 -1.02 0.34 0 0 Z " fill="#194161" transform="translate(211,151)"/>
<path d="M0 0 C0.66 0.33 1.32 0.66 2 1 C-1.96 4.465 -1.96 4.465 -6 8 C-6.33 7.01 -6.66 6.02 -7 5 C-4.69 3.35 -2.38 1.7 0 0 Z " fill="#B3DAEB" transform="translate(186,138)"/>
<path d="M0 0 C0.66 0 1.32 0 2 0 C4.04169485 2.90548882 5 4.40142046 5 8 C2.5 6.25 2.5 6.25 0 4 C0 2.68 0 1.36 0 0 Z " fill="#2A5070" transform="translate(140,104)"/>
<path d="M0 0 C0.33 0.66 0.66 1.32 1 2 C0.34 2 -0.32 2 -1 2 C-1.144375 2.78375 -1.28875 3.5675 -1.4375 4.375 C-2 7 -2 7 -3 9 C-3.66 9 -4.32 9 -5 9 C-3.375 2.25 -3.375 2.25 0 0 Z " fill="#E3EFF4" transform="translate(128,43)"/>
<path d="M0 0 C0.66 0.66 1.32 1.32 2 2 C1.625 4.625 1.625 4.625 1 7 C0.01 7.33 -0.98 7.66 -2 8 C-1.34 5.36 -0.68 2.72 0 0 Z " fill="#D4DCE2" transform="translate(86,287)"/>
<path d="M0 0 C0 0.99 0 1.98 0 3 C-1.98 3.99 -1.98 3.99 -4 5 C-4.33 3.68 -4.66 2.36 -5 1 C-3.35 0.67 -1.7 0.34 0 0 Z " fill="#0D2E4D" transform="translate(105,197)"/>
<path d="M0 0 C1.76462683 3.08809695 2 4.23312136 2 8 C1.01 8 0.02 8 -1 8 C-1.125 2.25 -1.125 2.25 0 0 Z " fill="#264F6F" transform="translate(293,191)"/>
<path d="M0 0 C0.33 0.66 0.66 1.32 1 2 C-1.97 2 -4.94 2 -8 2 C-8 1.34 -8 0.68 -8 0 C-4.69693408 -1.10102197 -3.28414305 -0.95067299 0 0 Z " fill="#0A1E37" transform="translate(226,172)"/>
<path d="M0 0 C2 3 2 3 2 5 C2.99 5.33 3.98 5.66 5 6 C4.01 6.495 4.01 6.495 3 7 C0.375 5.5625 0.375 5.5625 -2 4 C-1.34 2.68 -0.68 1.36 0 0 Z " fill="#0A3355" transform="translate(224,158)"/>
<path d="M0 0 C0.33 0.99 0.66 1.98 1 3 C-0.4375 5.1875 -0.4375 5.1875 -2 7 C-2.66 6.67 -3.32 6.34 -4 6 C-3.67 5.67 -3.34 5.34 -3 5 C-3.66 4.34 -4.32 3.68 -5 3 C-3.35 2.01 -1.7 1.02 0 0 Z " fill="#183F5F" transform="translate(138,151)"/>
<path d="M0 0 C2.8002232 1.4001116 3.56776098 3.26572551 5 6 C5 6.99 5 7.98 5 9 C0.125 4.375 0.125 4.375 -1 1 C-0.67 0.67 -0.34 0.34 0 0 Z " fill="#152944" transform="translate(106,126)"/>
<path d="M0 0 C0 4.38968456 -2.12805101 5.76905739 -5 9 C-5.66 8.34 -6.32 7.68 -7 7 C-4.69 4.69 -2.38 2.38 0 0 Z " fill="#2F3844" transform="translate(79,102)"/>
<path d="M0 0 C2.475 0.99 2.475 0.99 5 2 C5 2.66 5 3.32 5 4 C3.02 4.99 3.02 4.99 1 6 C0 5 0 5 -0.0625 2.4375 C-0.041875 1.633125 -0.02125 0.82875 0 0 Z " fill="#D3EBF4" transform="translate(225,91)"/>
<path d="M0 0 C2.31 0 4.62 0 7 0 C6.34 1.65 5.68 3.3 5 5 C4.731875 4.360625 4.46375 3.72125 4.1875 3.0625 C3.11332248 0.66868314 3.11332248 0.66868314 0 0 Z " fill="#0F1E37" transform="translate(89,264)"/>
<path d="M0 0 C0.99 0.33 1.98 0.66 3 1 C2.34 3.31 1.68 5.62 1 8 C0.34 8 -0.32 8 -1 8 C-0.67 5.36 -0.34 2.72 0 0 Z " fill="#254865" transform="translate(270,234)"/>
<path d="M0 0 C0.66 0 1.32 0 2 0 C1.50168276 3.68754757 0.89932357 5.60490662 -2 8 C-1.125 2.25 -1.125 2.25 0 0 Z " fill="#183851" transform="translate(169,213)"/>
<path d="M0 0 C0.66 0.99 1.32 1.98 2 3 C1.67 3.99 1.34 4.98 1 6 C0.01 6.33 -0.98 6.66 -2 7 C-2.33 6.01 -2.66 5.02 -3 4 C-1.5625 1.8125 -1.5625 1.8125 0 0 Z " fill="#0F2645" transform="translate(207,172)"/>
<path d="M0 0 C-1.36983503 3.16115776 -1.9890638 3.9927092 -5 6 C-5.66 5.34 -6.32 4.68 -7 4 C-2.25 0 -2.25 0 0 0 Z " fill="#CDEAF6" transform="translate(212,127)"/>
<path d="M0 0 C1.32 0 2.64 0 4 0 C4 0.66 4 1.32 4 2 C4.66 2 5.32 2 6 2 C6 2.66 6 3.32 6 4 C1.25 3.25 1.25 3.25 -1 1 C-0.67 0.67 -0.34 0.34 0 0 Z " fill="#254E6C" transform="translate(213,82)"/>
<path d="M0 0 C-0.33 0.99 -0.66 1.98 -1 3 C-3.875 3.625 -3.875 3.625 -7 4 C-7.66 3.34 -8.32 2.68 -9 2 C-2.25 0 -2.25 0 0 0 Z " fill="#386487" transform="translate(235,76)"/>
<path d="M0 0 C-3.13498292 1.85776765 -5.37471432 2.20140476 -9 2 C-9 1.34 -9 0.68 -9 0 C-5.52176885 -1.15941038 -3.54104422 -0.70820884 0 0 Z " fill="#F0FCFE" transform="translate(188,6)"/>
</svg>
