<svg xmlns="http://www.w3.org/2000/svg" viewBox="0 0 680 700" width="680" height="700" role="img" aria-label="Strada brand identity">
  <title>Strada brand identity</title>

  <rect x="0" y="0" width="680" height="400" fill="#1A1614"/>

  <g stroke="#C26B3C" stroke-width="0.6" opacity="0.4">
    <line x1="40" y1="40" x2="62" y2="40"/>
    <line x1="640" y1="40" x2="618" y2="40"/>
    <line x1="40" y1="360" x2="62" y2="360"/>
    <line x1="640" y1="360" x2="618" y2="360"/>
  </g>

  <g>
    <path d="M 375 130 C 375 110 305 110 305 165 C 305 175 375 185 375 195 C 375 235 305 235 305 225" fill="none" stroke="#C26B3C" stroke-width="11" stroke-linecap="round"/>
    <path d="M 375 130 C 375 110 305 110 305 165 C 305 175 375 185 375 195 C 375 235 305 235 305 225" fill="none" stroke="#F4EFE6" stroke-width="1.5" stroke-linecap="round" stroke-dasharray="4 5"/>
  </g>

  <line x1="285" y1="265" x2="395" y2="265" stroke="#C26B3C" stroke-width="0.5" opacity="0.5"/>

  <text x="340" y="310" text-anchor="middle" font-family="Inter, -apple-system, BlinkMacSystemFont, 'Segoe UI', Helvetica, Arial, sans-serif" font-size="36" font-weight="500" letter-spacing="14" fill="#F4EFE6">STRADA</text>

  <text x="340" y="342" text-anchor="middle" font-family="Inter, -apple-system, BlinkMacSystemFont, 'Segoe UI', Helvetica, Arial, sans-serif" font-size="11" font-weight="400" letter-spacing="5" fill="#8A7968">Fleet  &amp;  Logistics  Solutions</text>

  <rect x="0" y="400" width="680" height="200" fill="#FAF8F3"/>

  <text x="130" y="438" text-anchor="middle" font-family="Inter, -apple-system, BlinkMacSystemFont, 'Segoe UI', Helvetica, Arial, sans-serif" font-size="11" font-weight="400" letter-spacing="3" fill="#8A7968">Monogram</text>
  <text x="340" y="438" text-anchor="middle" font-family="Inter, -apple-system, BlinkMacSystemFont, 'Segoe UI', Helvetica, Arial, sans-serif" font-size="11" font-weight="400" letter-spacing="3" fill="#8A7968">Stacked</text>
  <text x="555" y="438" text-anchor="middle" font-family="Inter, -apple-system, BlinkMacSystemFont, 'Segoe UI', Helvetica, Arial, sans-serif" font-size="11" font-weight="400" letter-spacing="3" fill="#8A7968">Horizontal</text>

  <line x1="240" y1="455" x2="240" y2="580" stroke="#E0DCD0" stroke-width="0.5"/>
  <line x1="440" y1="455" x2="440" y2="580" stroke="#E0DCD0" stroke-width="0.5"/>

  <g>
    <path d="M 149 485 C 149 474 111 474 111 504 C 111 510 149 515 149 521 C 149 543 111 543 111 538" fill="none" stroke="#1A1614" stroke-width="7.5" stroke-linecap="round"/>
    <path d="M 149 485 C 149 474 111 474 111 504 C 111 510 149 515 149 521 C 149 543 111 543 111 538" fill="none" stroke="#C26B3C" stroke-width="1.2" stroke-linecap="round" stroke-dasharray="3 4"/>
  </g>

  <g>
    <path d="M 354 478 C 354 471 326 471 326 491 C 326 495 354 499 354 503 C 354 517 326 517 326 513" fill="none" stroke="#1A1614" stroke-width="5.5" stroke-linecap="round"/>
    <path d="M 354 478 C 354 471 326 471 326 491 C 326 495 354 499 354 503 C 354 517 326 517 326 513" fill="none" stroke="#C26B3C" stroke-width="1" stroke-linecap="round" stroke-dasharray="2.5 3"/>
  </g>
  <text x="340" y="546" text-anchor="middle" font-family="Inter, -apple-system, BlinkMacSystemFont, 'Segoe UI', Helvetica, Arial, sans-serif" font-size="18" font-weight="500" letter-spacing="7" fill="#1A1614">STRADA</text>

  <g>
    <path d="M 511 489 C 511 482 489 482 489 500 C 489 503 511 506 511 510 C 511 522 489 522 489 519" fill="none" stroke="#1A1614" stroke-width="4.5" stroke-linecap="round"/>
    <path d="M 511 489 C 511 482 489 482 489 500 C 489 503 511 506 511 510 C 511 522 489 522 489 519" fill="none" stroke="#C26B3C" stroke-width="0.9" stroke-linecap="round" stroke-dasharray="2 2.5"/>
  </g>
  <line x1="525" y1="486" x2="525" y2="522" stroke="#C26B3C" stroke-width="0.5"/>
  <text x="540" y="513" font-family="Inter, -apple-system, BlinkMacSystemFont, 'Segoe UI', Helvetica, Arial, sans-serif" font-size="17" font-weight="500" letter-spacing="6" fill="#1A1614">STRADA</text>

  <rect x="0" y="600" width="680" height="100" fill="#F2EDE0"/>

  <text x="40" y="640" font-family="Inter, -apple-system, BlinkMacSystemFont, 'Segoe UI', Helvetica, Arial, sans-serif" font-size="11" font-weight="400" letter-spacing="3" fill="#8A7968">Palette</text>

  <g transform="translate(125, 627)">
    <rect x="0" y="0" width="38" height="22" fill="#1A1614" rx="2"/>
    <text x="48" y="15" font-family="Inter, -apple-system, BlinkMacSystemFont, 'Segoe UI', Helvetica, Arial, sans-serif" font-size="11" fill="#1A1614">Charcoal</text>
  </g>

  <g transform="translate(245, 627)">
    <rect x="0" y="0" width="38" height="22" fill="#C26B3C" rx="2"/>
    <text x="48" y="15" font-family="Inter, -apple-system, BlinkMacSystemFont, 'Segoe UI', Helvetica, Arial, sans-serif" font-size="11" fill="#1A1614">Copper</text>
  </g>

  <g transform="translate(370, 627)">
    <rect x="0" y="0" width="38" height="22" fill="#F4EFE6" stroke="#E0DCD0" stroke-width="0.5" rx="2"/>
    <text x="48" y="15" font-family="Inter, -apple-system, BlinkMacSystemFont, 'Segoe UI', Helvetica, Arial, sans-serif" font-size="11" fill="#1A1614">Ivory</text>
  </g>

  <g transform="translate(490, 627)">
    <rect x="0" y="0" width="38" height="22" fill="#8A7968" rx="2"/>
    <text x="48" y="15" font-family="Inter, -apple-system, BlinkMacSystemFont, 'Segoe UI', Helvetica, Arial, sans-serif" font-size="11" fill="#1A1614">Stone</text>
  </g>

  <text x="340" y="682" text-anchor="middle" font-family="Inter, -apple-system, BlinkMacSystemFont, 'Segoe UI', Helvetica, Arial, sans-serif" font-size="11" font-weight="400" letter-spacing="2" fill="#8A7968">Strada — built for the road.</text>
</svg>
